<?xml version="1.0" encoding="UTF-8" standalone="no"?>
<!-- Created with Inkscape (http://www.inkscape.org/) -->

<svg
   xmlns:dc="http://purl.org/dc/elements/1.1/"
   xmlns:cc="http://creativecommons.org/ns#"
   xmlns:rdf="http://www.w3.org/1999/02/22-rdf-syntax-ns#"
   xmlns:svg="http://www.w3.org/2000/svg"
   xmlns="http://www.w3.org/2000/svg"
   xmlns:sodipodi="http://sodipodi.sourceforge.net/DTD/sodipodi-0.dtd"
   xmlns:inkscape="http://www.inkscape.org/namespaces/inkscape"
   width="210mm"
   height="297mm"
   viewBox="0 0 210 297"
   version="1.1"
   id="svg920"
   inkscape:version="0.92.2 (5c3e80d, 2017-08-06)"
   sodipodi:docname="mwsetup.svg">
  <defs
     id="defs914">
    <inkscape:path-effect
       effect="bspline"
       id="path-effect1591"
       is_visible="true"
       weight="33.333333"
       steps="2"
       helper_size="0"
       apply_no_weight="true"
       apply_with_weight="true"
       only_selected="false" />
    <inkscape:path-effect
       effect="spiro"
       id="path-effect1585"
       is_visible="true" />
  </defs>
  <sodipodi:namedview
     id="base"
     pagecolor="#ffffff"
     bordercolor="#666666"
     borderopacity="1.0"
     inkscape:pageopacity="0.0"
     inkscape:pageshadow="2"
     inkscape:zoom="0.98994949"
     inkscape:cx="399.77831"
     inkscape:cy="825.07294"
     inkscape:document-units="mm"
     inkscape:current-layer="layer1"
     showgrid="false"
     inkscape:snap-others="false"
     inkscape:snap-grids="false"
     inkscape:snap-to-guides="false"
     inkscape:object-nodes="false"
     inkscape:snap-nodes="false"
     inkscape:snap-global="false"
     inkscape:window-width="1366"
     inkscape:window-height="705"
     inkscape:window-x="-8"
     inkscape:window-y="-8"
     inkscape:window-maximized="1" />
  <metadata
     id="metadata917">
    <rdf:RDF>
      <cc:Work
         rdf:about="">
        <dc:format>image/svg+xml</dc:format>
        <dc:type
           rdf:resource="http://purl.org/dc/dcmitype/StillImage" />
        <dc:title />
      </cc:Work>
    </rdf:RDF>
  </metadata>
  <g
     inkscape:label="Ebene 1"
     inkscape:groupmode="layer"
     id="layer1">
    <rect
       style="fill:#ffffff;fill-opacity:1;stroke:#000000;stroke-width:0.49700001;stroke-miterlimit:4;stroke-dasharray:none;stroke-opacity:1"
       id="rect1465"
       width="32.874149"
       height="31.270535"
       x="9.8889723"
       y="7.0125623" />
    <text
       xml:space="preserve"
       style="font-style:normal;font-weight:normal;font-size:10.58333302px;line-height:1.25;font-family:sans-serif;letter-spacing:0px;word-spacing:0px;fill:#000000;fill-opacity:1;stroke:none;stroke-width:0.26458332"
       x="21.648832"
       y="19.306959"
       id="text1469"><tspan
         sodipodi:role="line"
         x="21.648832"
         y="19.306959"
         style="font-size:4.93888903px;stroke-width:0.26458332"
         id="tspan1475">RF  </tspan></text>
    <text
       xml:space="preserve"
       style="font-style:normal;font-weight:normal;font-size:10.58333302px;line-height:1.25;font-family:sans-serif;letter-spacing:0px;word-spacing:0px;fill:#000000;fill-opacity:1;stroke:none;stroke-width:0.26458332"
       x="14.432553"
       y="25.454161"
       id="text1481"><tspan
         sodipodi:role="line"
         id="tspan1479"
         x="14.432553"
         y="25.454161"
         style="font-size:4.93888903px;stroke-width:0.26458332">Generator</tspan></text>
    <rect
       style="fill:#ffffff;fill-opacity:1;stroke:#000000;stroke-width:0.42214236;stroke-miterlimit:4;stroke-dasharray:none;stroke-opacity:1"
       id="rect1493"
       width="31.345392"
       height="19.318262"
       x="68.383568"
       y="52.41095" />
    <text
       xml:space="preserve"
       style="font-style:normal;font-weight:normal;font-size:10.58333302px;line-height:1.25;font-family:sans-serif;letter-spacing:0px;word-spacing:0px;fill:#000000;fill-opacity:1;stroke:none;stroke-width:0.26458332"
       x="73.23185"
       y="63.406429"
       id="text1499"><tspan
         sodipodi:role="line"
         id="tspan1497"
         x="73.23185"
         y="63.406429"
         style="font-size:4.93888903px;stroke-width:0.26458332">Switch 1</tspan></text>
    <rect
       y="94.184219"
       x="98.129715"
       height="16.754396"
       width="45.084965"
       id="rect1509"
       style="fill:#ffffff;fill-opacity:1;stroke:#000000;stroke-width:0.5805831;stroke-miterlimit:4;stroke-dasharray:none;stroke-opacity:1" />
    <text
       id="text1517"
       y="101.3587"
       x="108.7787"
       style="font-style:normal;font-weight:normal;font-size:10.58333302px;line-height:1.25;font-family:sans-serif;letter-spacing:0px;word-spacing:0px;fill:#000000;fill-opacity:1;stroke:none;stroke-width:0.26458332"
       xml:space="preserve"><tspan
         style="font-size:4.93888903px;stroke-width:0.26458332"
         y="101.3587"
         x="108.7787"
         id="tspan1515"
         sodipodi:role="line">RF Power </tspan></text>
    <text
       xml:space="preserve"
       style="font-style:normal;font-weight:normal;font-size:10.58333302px;line-height:1.25;font-family:sans-serif;letter-spacing:0px;word-spacing:0px;fill:#000000;fill-opacity:1;stroke:none;stroke-width:0.26458332"
       x="109.04597"
       y="107.23862"
       id="text1521"><tspan
         sodipodi:role="line"
         id="tspan1519"
         x="109.04597"
         y="107.23862"
         style="font-size:4.93888903px;stroke-width:0.26458332">Combiner</tspan></text>
    <rect
       style="fill:#ffffff;fill-opacity:1;stroke:#000000;stroke-width:0.49700001;stroke-miterlimit:4;stroke-dasharray:none;stroke-opacity:1"
       id="rect1523"
       width="44.63401"
       height="18.976137"
       x="100.22607"
       y="145.45818" />
    <text
       xml:space="preserve"
       style="font-style:normal;font-weight:normal;font-size:10.58333302px;line-height:1.25;font-family:sans-serif;letter-spacing:0px;word-spacing:0px;fill:#000000;fill-opacity:1;stroke:none;stroke-width:0.26458332"
       x="107.44235"
       y="156.41623"
       id="text1527"><tspan
         sodipodi:role="line"
         id="tspan1525"
         x="107.44235"
         y="156.41623"
         style="font-size:4.93888903px;stroke-width:0.26458332">MW antenna</tspan></text>
    <rect
       style="fill:#ffffff;fill-opacity:1;stroke:#000000;stroke-width:0.49700001;stroke-miterlimit:4;stroke-dasharray:none;stroke-opacity:1"
       id="rect1529"
       width="26.192413"
       height="20.045216"
       x="11.492589"
       y="55.655617" />
    <text
       xml:space="preserve"
       style="font-style:normal;font-weight:normal;font-size:10.58333302px;line-height:1.25;font-family:sans-serif;letter-spacing:0px;word-spacing:0px;fill:#000000;fill-opacity:1;stroke:none;stroke-width:0.26458332"
       x="18.441597"
       y="66.880936"
       id="text1533"><tspan
         sodipodi:role="line"
         id="tspan1531"
         x="18.441597"
         y="66.880936"
         style="stroke-width:0.26458332;font-size:4.93888889px">BPG</tspan></text>
    <path
       style="fill:none;stroke:#000000;stroke-width:1.165;stroke-linecap:butt;stroke-linejoin:miter;stroke-opacity:1;stroke-miterlimit:4;stroke-dasharray:none"
       d="m 42.763125,22.781465 c 1.781796,0 3.563593,0 5.34539,0 0.178178,0 0.356359,0 0.534538,0 0.267271,0 0.54252,-0.06482 0.801809,0 0.122229,0.03056 0.178181,0.178179 0.267269,0.267269 0.267271,0 0.53454,0 0.801809,0 0.623628,0 1.247259,0 1.870887,0 0.08909,0 0.178178,0 0.267269,0 0.08909,0 0.187584,-0.03984 0.267269,0 0.112691,0.05635 0.15458,0.210924 0.267271,0.26727 0.07968,0.03984 0.204272,-0.063 0.267269,0 0.063,0.063 -0.07968,0.227427 0,0.267269 0.09759,0.0488 1.284325,-0.05202 1.336347,0 0.063,0.063 -0.063,0.204273 0,0.26727 0.125992,0.125991 0.408548,-0.125993 0.53454,0 0.140862,0.140863 0.126405,0.393675 0.267269,0.534539 0.063,0.063 0.204274,-0.063 0.267269,0 0.063,0.063 0,0.178179 0,0.267269 0,0.120911 0.03561,1.53239 0,1.603617 -0.05635,0.112691 -0.197382,0.162438 -0.267269,0.26727 -0.110503,0.165753 -0.156768,0.368784 -0.267269,0.534538 -0.06989,0.104833 -0.210925,0.15458 -0.267271,0.267271 -0.03984,0.07968 0,0.178178 0,0.267269 0,0.08909 0,0.178178 0,0.267269 0,0.08909 -0.063,0.204274 0,0.267269 0.0086,0.0086 0.736989,0 0.801809,0 0.178181,0 0.356359,0 0.53454,0 0.08909,0 0.204272,-0.063 0.267269,0 0.063,0.063 -0.063,0.204274 0,0.267271 0.09382,0.09382 1.151737,-0.09231 1.336347,0 0.225383,0.112689 0.309158,0.421847 0.53454,0.534538 0.156586,0.07829 1.139397,-0.04924 1.336347,0 0.193263,0.04831 0.345552,0.204274 0.534541,0.267269 0.08452,0.02817 0.178178,0 0.267269,0 0.623628,0 1.247256,0 1.870887,0 0.178178,0 0.365501,-0.05634 0.534538,0 0.119525,0.03984 0.15458,0.210926 0.267268,0.267271 0.114147,0.05707 1.230694,0 1.33635,0 0.139761,0 0.998802,0.03514 1.069078,0 1.262097,-0.63105 -1.63131,0.140557 1.069078,-0.53454 0.172858,-0.04322 0.356359,0 0.534538,0 0.277939,0 1.393378,0.05256 1.603618,0 0.193262,-0.04832 0.345551,-0.204274 0.534538,-0.267269 0.134371,-0.04479 1.533808,0 1.603618,0 0.35636,0 0.712719,0 1.069078,0 0.08909,0 0.204272,0.06299 0.267269,0 0.063,-0.063 -0.07968,-0.227428 0,-0.267269 0.200459,-0.100229 1.046829,0.07238 1.336347,0 0.273315,-0.06833 0.525552,-0.212018 0.801809,-0.267271 0.17472,-0.03494 0.35636,0 0.534541,0 0.267268,-0.08909 0.528492,-0.198941 0.801806,-0.267269 0.08643,-0.02162 0.178181,0 0.267272,0 0.356359,0 0.712718,0 1.069078,0 1.158166,0 2.316334,0 3.474503,0 1.514528,0 3.029053,0 4.543581,0 0.44545,0 0.890899,0 1.336347,0 0.08909,0 0.178181,0 0.267271,0 0.08909,0 0.193141,0.04942 0.267269,0 0.209664,-0.139774 0.324877,-0.394764 0.534538,-0.534538 0.148256,-0.09884 0.408548,0.125992 0.53454,0 0.063,-0.063 -0.063,-0.204274 0,-0.267271 0.55299,-0.55299 -0.02162,0.845042 0.53454,-0.267269 0.03984,-0.07969 -0.063,-0.204274 0,-0.267269 0.06299,-0.063 0.187585,0.03984 0.267269,0 0.112692,-0.05635 0.154578,-0.210925 0.267269,-0.26727 0.07968,-0.03984 0.204274,0.063 0.267269,0 0.140864,-0.140863 0.126407,-0.393675 0.267271,-0.534539 0.08869,-0.08869 0.44585,0.08869 0.534538,0 0.063,-0.063 -0.07968,-0.227427 0,-0.267269 0.116277,-0.05814 0.63668,0.08256 0.801809,0 0.22538,-0.112691 0.295487,-0.454855 0.534538,-0.534539 0.176845,-0.05895 1.508704,0 1.870887,0 0.08909,0 0.178181,0 0.267269,0 0.08909,0 0.187587,0.03984 0.267272,0 0.112688,-0.05635 0.154577,-0.210925 0.267268,-0.26727 0.07968,-0.03984 0.187585,0.03984 0.267269,0 0.112692,-0.05635 0.15458,-0.210924 0.267269,-0.267269 0.213818,-0.106908 0.587994,0.106907 0.801809,0 0.660533,-0.330266 -0.09226,-0.26727 0.534541,-0.26727 0.178178,0 0.356359,0 0.534537,0 0.08909,0 0.267269,-0.08909 0.267269,0 0,0.08909 -0.267269,-0.08909 -0.267269,0 0,0.330266 0.374812,0.26727 0.534541,0.26727"
       id="path1559"
       inkscape:connector-curvature="0" />
    <path
       style="fill:none;stroke:#000000;stroke-width:1.265;stroke-linecap:butt;stroke-linejoin:miter;stroke-opacity:1;stroke-miterlimit:4;stroke-dasharray:none"
       d="m 136.30746,32.403169 c 0,0.445447 0,0.890897 0,1.336346 0,0.623629 0,1.247257 0,1.870888 0,0.267269 0,0.534537 0,0.801806 0,0.178181 -0.0563,0.365504 0,0.534541 0.33026,0.990795 0.26727,-0.32579 0.26727,0.534537 0,0.267272 0,0.534541 0,0.801809 0,0.178181 -0.0349,0.359821 0,0.534541 0.0553,0.276254 0.22095,0.523915 0.26727,0.801806 0.0439,0.263634 -0.0648,0.542521 0,0.80181 0.0305,0.122229 0.17818,0.178181 0.26727,0.267268 0.0891,0.08909 0.23671,0.14504 0.26727,0.267272 0.0648,0.259289 0,0.534538 0,0.801806 0,0.08909 -0.063,0.204275 0,0.267272 0.14086,0.140861 0.39367,0.126405 0.53453,0.267269 0.063,0.06299 0,0.178178 0,0.267269 0,0.08909 0,0.178181 0,0.267269 0,0.712718 -0.0891,-0.08909 0.26728,0.267271 0.0643,0.06431 -0.0643,1.004763 0,1.069078 0.12599,0.125992 0.40854,-0.125992 0.53453,0 0.063,0.063 -0.063,0.204272 0,0.267269 0.063,0.063 0.20428,-0.063 0.26727,0 0.063,0.063 -0.0797,0.227428 0,0.267269 0.15937,0.07968 0.37517,-0.07968 0.53454,0 0.0797,0.03984 -0.063,0.204274 0,0.267269 0.55299,0.552992 -0.0216,-0.845042 0.53454,0.267271 0.0398,0.07969 -0.063,0.204272 0,0.267269 0.063,0.063 0.18759,-0.03984 0.26727,0 0.11269,0.05635 0.15458,0.210923 0.26727,0.267269 0.15937,0.07968 0.40855,-0.125992 0.53454,0 0.063,0.063 -0.063,0.204274 0,0.267269 0.13363,0.133635 0.66817,-0.133633 0.80181,0 0.063,0.063 -0.063,0.204274 0,0.267271 0.12599,0.125992 0.3655,-0.05635 0.53454,0 0.18898,0.063 0.34555,0.204272 0.53454,0.267269 0.16903,0.05635 0.37517,-0.07968 0.53454,0 0.11268,0.05635 0.17817,0.178181 0.26726,0.267269 0.0891,0.08909 0.21093,0.15458 0.26727,0.267271 0.0399,0.07968 -0.063,0.204272 0,0.267269 0.12599,0.125992 0.37517,-0.07968 0.53454,0 1.11231,0.556154 -0.28572,-0.01844 0.26727,0.534538 0.063,0.063 0.18759,-0.03984 0.26727,0 1.11231,0.556157 -0.28572,-0.01844 0.26727,0.53454 0.063,0.063 0.20427,-0.063 0.26727,0 0.063,0.063 -0.063,0.204274 0,0.267269 0.12599,0.125992 0.37517,-0.07968 0.53454,0 0.88642,0.88642 -0.25198,-0.125992 0.53454,0.267269 0.22538,0.112691 0.30916,0.421849 0.53454,0.53454 0.0797,0.03984 0.18758,-0.03984 0.26727,0 0.11269,0.05635 0.15458,0.210923 0.26727,0.267269 0.0797,0.03984 0.20427,-0.06299 0.26727,0 0.35636,0.35636 -0.56697,0.256461 0.26727,0.534541 0.001,5.29e-4 0.80155,-2.57e-4 0.8018,0 0.063,0.06299 -0.063,0.204271 0,0.267268 0.063,0.063 0.18759,-0.03984 0.26727,0 0.11269,0.05635 0.15458,0.210924 0.26727,0.267269 0.0797,0.03984 0.20428,-0.06299 0.26727,0 0.063,0.063 -0.0398,0.187585 0,0.267269 0.55616,1.112314 -0.0184,-0.285721 0.53454,0.267272 0.063,0.06299 -0.063,0.204271 0,0.267268 0.063,0.063 0.20428,-0.063 0.26727,0 0.063,0.063 0,0.178179 0,0.267269 0,0.08909 0,0.178181 0,0.267269 l 0.53454,0.80181"
       id="path1569"
       inkscape:connector-curvature="0" />
    <path
       style="fill:none;stroke:#000000;stroke-width:1.165;stroke-linecap:butt;stroke-linejoin:miter;stroke-opacity:1;stroke-miterlimit:4;stroke-dasharray:none"
       d="m 105.57146,31.334088 c 0,1.514528 0,3.029056 0,4.543584 0,0.178178 0,0.356359 0,0.534537 0,0.178181 0.0563,0.365504 0,0.534541 -0.0398,0.119525 -0.21092,0.154577 -0.26727,0.267268 -0.0797,0.15937 0.0797,0.375172 0,0.534541 -0.0563,0.112688 -0.21092,0.154577 -0.26727,0.267269 -0.0797,0.159369 0.0564,0.365503 0,0.534537 -0.64531,1.935946 0.0771,-0.421378 -0.53453,0.80181 -0.0399,0.07968 0.063,0.204274 0,0.267268 -0.14087,0.140865 -0.39368,0.126408 -0.53455,0.267272 -0.13363,0.133633 0.13364,0.668173 0,0.801806 -0.063,0.063 -0.20427,-0.06299 -0.26726,0 -0.126,0.125992 0.0797,0.375172 0,0.534541 -0.55616,1.112311 0.0184,-0.285721 -0.53454,0.267269 -0.063,0.063 0.063,0.204274 0,0.267268 -0.063,0.063 -0.22743,-0.07968 -0.26727,0 -0.0797,0.15937 0.0797,0.375172 0,0.534541 -0.0413,0.08257 -0.7062,-0.04781 -0.80181,0 -0.11269,0.05634 -0.15458,0.210923 -0.26727,0.267269 -0.14499,0.0725 -0.99595,-0.07313 -1.06908,0 -0.063,0.063 0.0797,0.227428 0,0.267269 -0.22705,0.113527 -1.315169,-0.09615 -1.603618,0 -0.119525,0.03984 -0.14774,0.227427 -0.267268,0.267271 -0.169035,0.05635 -0.35636,0 -0.534538,0 -0.44545,0 -0.8909,0 -1.33635,0 -0.08909,0 -0.18275,-0.02817 -0.267269,0 -0.188986,0.063 -0.341275,0.218953 -0.534537,0.267269 -0.238615,0.05965 -1.026978,0 -1.33635,0 -0.08909,0 -0.18275,-0.02817 -0.267269,0 -0.488968,0.162988 -0.725035,0.457766 -1.069078,0.801809 -0.08909,0.08909 -0.162438,0.197382 -0.267269,0.267269 -1.167312,0.778208 0.0881,-0.118457 -1.069078,0.267269 -0.119528,0.03984 -0.15458,0.210926 -0.267268,0.267269 -0.07968,0.03984 -0.204275,-0.063 -0.267272,0 -0.063,0.063 0.063,0.204274 0,0.267271 -0.125992,0.125992 -0.386284,-0.09884 -0.534538,0 -0.209663,0.139774 -0.324876,0.394764 -0.53454,0.534538 -0.07413,0.04942 -0.187584,-0.03984 -0.267269,0 -0.112691,0.05635 -0.154577,0.210926 -0.267269,0.267269 -0.07968,0.03984 -0.187587,-0.03984 -0.267269,0 -0.07717,0.03859 -0.457369,0.495956 -0.53454,0.53454 -0.07968,0.03984 -0.204274,-0.063 -0.267269,0 -0.063,0.063 0.063,0.204274 0,0.267269 -0.063,0.063 -0.204274,-0.063 -0.267269,0 -0.498705,0.498705 -0.124216,0.782971 -0.267271,1.069078 -0.05635,0.112691 -0.210923,0.15458 -0.267269,0.267271 -0.0725,0.144989 0.07313,0.995948 0,1.069078 -0.063,0.063 -0.204274,-0.063 -0.267269,0 -0.08869,0.08869 0.08869,0.44585 0,0.534538 -0.063,0.063 -0.204274,-0.06299 -0.267271,0 -0.06299,0.063 0.03984,0.187584 0,0.267269 -0.05634,0.112691 -0.210924,0.15458 -0.267269,0.267272 -0.0725,0.144989 0.07313,0.995947 0,1.069078 -0.063,0.06299 -0.204272,-0.063 -0.267269,0 -0.063,0.06299 0,0.178178 0,0.267268 0,0.08909 0,0.178179 0,0.267269"
       id="path1571"
       inkscape:connector-curvature="0" />
    <path
       style="fill:none;stroke:#000000;stroke-width:1.165;stroke-linecap:butt;stroke-linejoin:miter;stroke-opacity:1;stroke-miterlimit:4;stroke-dasharray:none"
       d="m 86.595325,71.959056 c 0,1.268291 -0.159367,0.75034 0.267271,1.603619 0.08909,0.178178 0.156766,0.368784 0.267269,0.534537 0.06989,0.104834 0.210923,0.154581 0.267269,0.267269 0.03984,0.07968 -0.063,0.204274 0,0.267272 0.063,0.06299 0.187587,-0.03984 0.267269,0 0.112691,0.05634 0.15458,0.210923 0.267271,0.267269 0.159369,0.07968 0.408546,-0.125992 0.534538,0 0.063,0.063 -0.063,0.204274 0,0.267268 0.063,0.063 0.187587,-0.03984 0.267271,0 0.112689,0.05635 0.154578,0.210926 0.267269,0.267269 0.105968,0.05299 0.747168,-0.05464 0.801809,0 0.063,0.063 -0.063,0.204275 0,0.267272 0.08869,0.08869 0.44585,-0.08869 0.534538,0 0.063,0.06299 -0.063,0.204271 0,0.267269 0.04148,0.04148 0.697807,-0.03467 0.801809,0 0.188987,0.063 0.345551,0.204274 0.534538,0.267269 0.169037,0.05634 0.356359,0 0.53454,0 0.35636,0 0.712719,0 1.069078,0 0.08909,0 0.178179,0 0.267269,0 0.08909,0 0.204274,-0.063 0.267269,0 0.063,0.063 -0.06299,0.204274 0,0.267271 0.133636,0.133633 0.668174,-0.133636 0.801809,0 0.063,0.063 -0.06299,0.204272 0,0.267269 0.063,0.063 0.178181,0 0.267269,0 0.44545,0 0.8909,0 1.33635,0 0.979987,0 1.959975,0 2.939962,0 0.139761,0 0.998798,-0.03514 1.069078,0 0.11269,0.05635 0.15458,0.210923 0.26727,0.267269 0.17079,0.08539 0.85396,-0.07171 1.06908,0 0.18899,0.063 0.34128,0.218953 0.53454,0.267269 0.29365,0.07341 1.68823,-0.09133 1.87088,0 0.0797,0.03984 -0.0398,0.187587 0,0.267271 0.0564,0.112689 0.15458,0.210923 0.26727,0.267269 0.10597,0.05298 0.74717,-0.05464 0.80181,0 0.063,0.063 -0.0797,0.227428 0,0.267269 0.15937,0.07968 0.36168,-0.04322 0.53454,0 0.19327,0.04832 0.34555,0.204274 0.53454,0.267269 0.0845,0.02817 0.20428,-0.063 0.26727,0 0.35636,0.356359 -0.56696,0.25646 0.26727,0.53454 0.16904,0.05635 0.37517,-0.07968 0.53454,0 0.0797,0.03984 -0.063,0.204274 0,0.267269 0.55299,0.55299 -0.0216,-0.845042 0.53454,0.267269 0.32913,0.658272 -0.77581,-0.241274 0.26727,0.801809 0.063,0.063 0.20427,-0.063 0.26727,0 0.14086,0.140864 0.1264,0.393676 0.26727,0.53454 0.063,0.063 0.20427,-0.063 0.26727,0 0.14086,0.140862 0.15676,0.368784 0.26727,0.534538 0.0699,0.104833 0.21092,0.15458 0.26727,0.267269 0.0398,0.07968 -0.0282,0.182753 0,0.267271 0.063,0.188987 0.20427,0.345551 0.26726,0.534538 0.0282,0.08452 -0.063,0.204274 0,0.267269 0.553,0.552992 -0.0216,-0.845042 0.53454,0.267271 0.26727,0.534538 -0.53454,0 0,0.801807 0.11051,0.165753 0.42404,0.101518 0.53454,0.267271 0.0988,0.148254 -0.0563,0.365501 0,0.534538 0.0399,0.119528 0.22743,0.147743 0.26727,0.267269 0.0564,0.169037 0,0.356359 0,0.53454 0,0.08909 -0.0398,0.187585 0,0.267269 0.0564,0.112691 0.21093,0.15458 0.26727,0.267269 0.0483,0.09665 0,1.150453 0,1.33635 0,0.979987 0,1.959975 0,2.939962 0,0.712722 0,1.42544 0,2.138159 0,0.08909 0.063,0.204271 0,0.267269 -0.063,0.06299 -0.20427,-0.063 -0.26727,0 -0.13363,0.133633 0.13364,0.668173 0,0.801809 -0.61422,0.614222 -0.53454,-0.06929 -0.53454,0.534538"
       id="path1611"
       inkscape:connector-curvature="0" />
    <path
       style="fill:none;stroke:#000000;stroke-width:1.065;stroke-linecap:butt;stroke-linejoin:miter;stroke-opacity:1;stroke-miterlimit:4;stroke-dasharray:none"
       d="m 156.0854,71.424519 c 0,0.712718 0,1.425437 0,2.138156 0,0.08909 0.063,0.204271 0,0.267269 -0.063,0.06299 -0.20427,-0.063 -0.26727,0 -0.13363,0.133635 0.13364,0.668173 0,0.801809 -0.063,0.06299 -0.20427,-0.063 -0.26727,0 -0.063,0.06299 0.063,0.204271 0,0.267269 -0.063,0.063 -0.20427,-0.063 -0.26727,0 -0.063,0.063 0.063,0.204274 0,0.267268 -0.12599,0.125992 -0.40854,-0.125991 -0.53454,0 -0.063,0.063 0.0399,0.187587 0,0.267269 -0.0256,0.05116 -1.01791,1.043498 -1.06907,1.069081 -0.0797,0.03984 -0.18275,-0.02817 -0.26727,0 -1.93595,0.645313 0.42137,-0.07706 -0.80181,0.534538 -0.11893,0.05947 -0.94684,-0.04075 -1.06908,0 -0.11953,0.03984 -0.15458,0.210923 -0.26727,0.267269 -0.0797,0.03984 -0.18758,-0.03984 -0.26727,0 -0.22538,0.112691 -0.29548,0.454855 -0.53454,0.53454 -1.21669,0 -0.0153,-0.125992 -0.80181,0.267269 -0.15936,0.07968 -0.40854,-0.125992 -0.53454,0 -0.55299,0.55299 0.84505,-0.02162 -0.26726,0.53454 -0.16799,0.08399 -0.9011,-0.08399 -1.06908,0 -0.11269,0.05634 -0.15458,0.210923 -0.26727,0.267269 -0.15937,0.07969 -0.3655,-0.05635 -0.53454,0 -0.18899,0.063 -0.34128,0.218953 -0.53454,0.267269 -0.17286,0.04321 -0.37517,-0.07969 -0.53454,0 -0.0797,0.03984 0.0845,0.239096 0,0.267269 -0.35571,0.11857 -1.48099,-0.07798 -1.87089,0 -0.19534,0.03907 -0.34555,0.204274 -0.53453,0.267271 -0.0845,0.02817 -0.18759,-0.03984 -0.26728,0 -0.11268,0.05634 -0.14774,0.227425 -0.26726,0.267269 -0.16904,0.05635 -0.36551,-0.05635 -0.53454,0 -0.11953,0.03984 -0.15458,0.210923 -0.26727,0.267269 -0.15937,0.07968 -0.37517,-0.07968 -0.53454,0 -0.11269,0.05635 -0.15458,0.210923 -0.26727,0.267269 -0.16472,0.08236 -1.43458,-0.08452 -1.60362,0 -0.17818,0.08909 -0.1264,0.393676 -0.26727,0.53454 -0.063,0.063 -0.17818,0 -0.26727,0 -0.53454,0 -1.06907,0 -1.60362,0 -0.0891,0 -0.20427,-0.063 -0.26726,0 -0.063,0.063 0.063,0.204274 0,0.267269 -0.063,0.063 -0.18759,-0.03984 -0.26727,0 -0.11269,0.05635 -0.15458,0.210923 -0.26727,0.267269 -0.15937,0.07968 -0.37517,-0.07968 -0.53454,0 -0.11269,0.05634 -0.15458,0.210926 -0.26727,0.267271 -0.15937,0.07969 -0.40855,-0.125992 -0.53454,0 -0.063,0.063 0.063,0.204272 0,0.267269 -0.063,0.063 -0.18759,-0.03984 -0.26727,0 -0.11269,0.05635 -0.15458,0.210923 -0.26727,0.267269 -0.36866,0.18433 -0.23907,-0.323678 -0.53454,0.267269 -0.0398,0.07968 0,0.178181 0,0.267271 -0.0891,0.08909 -0.21092,0.154578 -0.26727,0.267269 -0.0398,0.07968 0.063,0.204274 0,0.267269 -0.063,0.063 -0.18759,-0.03984 -0.26727,0 -0.11269,0.05635 -0.15458,0.210923 -0.26727,0.267269 -0.0797,0.03984 -0.20427,-0.063 -0.26727,0 -0.063,0.063 0.0282,0.182753 0,0.267271 -0.063,0.188987 -0.20427,0.345552 -0.26727,0.534538 -0.0282,0.08452 0.0398,0.187584 0,0.267269 -0.0563,0.112691 -0.21092,0.15458 -0.26727,0.267271 -0.0398,0.07969 0.063,0.204272 0,0.267269 -0.063,0.06299 -0.20427,-0.063 -0.26727,0 -0.0731,0.07313 0.0725,0.924087 0,1.069078 -0.0563,0.112692 -0.21092,0.154578 -0.26727,0.267269 -0.0797,0.159369 0.15937,0.454856 0,0.534541 -0.15936,0.07968 -0.40854,-0.125992 -0.53454,0 -0.13363,0.133633 0.13364,0.668173 0,0.801806 -0.063,0.063 -0.20427,-0.063 -0.26726,0 -0.063,0.063 0,0.178181 0,0.267272 -0.0891,0 -0.20428,-0.063 -0.26727,0 -0.126,0.125992 0.12599,0.408545 0,0.534537 -0.063,0.063 -0.20428,-0.06299 -0.26727,0 -0.12599,0.125992 0.0797,0.375172 0,0.534541 -0.0564,0.112691 -0.21093,0.154577 -0.26727,0.267268 -0.0843,0.168611 0.0843,1.167736 0,1.336347 -0.0563,0.112692 -0.21093,0.154581 -0.26727,0.267272 -0.0407,0.08134 0,0.68144 0,0.801806 0,0.712719 0,1.425438 0,2.138157"
       id="path1613"
       inkscape:connector-curvature="0" />
    <path
       style="fill:none;stroke:#000000;stroke-width:1.165;stroke-linecap:butt;stroke-linejoin:miter;stroke-opacity:1;stroke-miterlimit:4;stroke-dasharray:none"
       d="m 119.20221,110.71314 c -4.22992,4.09211 1.4795,2.03307 1.87088,3.20723 0.0564,0.16904 -0.0797,0.37517 0,0.53454 0.0399,0.0797 0.18759,-0.0398 0.26728,0 0.11268,0.0563 0.15457,0.21093 0.26726,0.26727 0.0797,0.0398 0.20428,-0.063 0.26727,0 0.13364,0.13364 -0.13363,0.66817 0,0.80181 0.12599,0.12599 0.40855,-0.12599 0.53454,0 0.126,0.12599 -0.0563,0.3655 0,0.53454 0.0398,0.11953 0.21093,0.15458 0.26727,0.26727 0.0398,0.0797 -0.0398,0.18758 0,0.26727 0.0563,0.11269 0.21093,0.15458 0.26727,0.26727 0.10691,0.21381 -0.10691,0.58799 0,0.80181 0.11269,0.22538 0.42185,0.30915 0.53454,0.53453 0.0725,0.145 -0.0731,0.99595 0,1.06908 0.14086,0.14087 0.39367,0.12641 0.53454,0.26727 0.12599,0.126 -0.0797,0.37517 0,0.53454 0.0563,0.11269 0.21092,0.15458 0.26727,0.26727 0.0797,0.15937 -0.0797,0.37517 0,0.53454 0.61159,1.22319 -0.11078,-1.13414 0.53454,0.80181 0.0563,0.16903 -0.0432,0.36168 0,0.53454 0.55615,2.22462 -0.0184,-0.32263 0.53454,1.33634 0.0947,0.28401 -0.0947,0.78508 0,1.06908 0.063,0.18899 0.20427,0.34555 0.26727,0.53454 0.0282,0.0845 0,0.17818 0,0.26727 0,0.17818 0,0.35636 0,0.53454 0,0.71272 0,1.42544 0,2.13816 0,0.13976 0.0351,0.9988 0,1.06908 -0.0564,0.11268 -0.22743,0.14774 -0.26727,0.26726 -0.0947,0.28401 0.0947,0.78508 0,1.06908 -0.063,0.18899 -0.20428,0.34555 -0.26727,0.53454 -0.0563,0.16904 0.0797,0.37517 0,0.53454 -0.0563,0.11269 -0.21093,0.15458 -0.26727,0.26727 -0.0848,0.16953 0.0868,1.16272 0,1.33635 -0.0563,0.11269 -0.21093,0.15458 -0.26727,0.26727 -0.10691,0.21381 0.10691,0.58799 0,0.8018 -0.0564,0.1127 -0.21093,0.15458 -0.26727,0.26728 -0.10691,0.21381 0.10691,0.58799 0,0.80181 -0.0564,0.11268 -0.21093,0.15457 -0.26727,0.26726 -0.0797,0.15937 0.0797,0.37517 0,0.53454 -0.11269,0.22538 -0.42185,0.30916 -0.53454,0.53454 -0.084,0.16799 0.084,0.90109 0,1.06908 -0.0563,0.11269 -0.21092,0.15458 -0.26727,0.26727 -0.0407,0.0813 0,0.68144 0,0.80181 0,0.71272 0,1.42544 0,2.13815 0,1.60362 0,3.20724 0,4.81085"
       id="path1617"
       inkscape:connector-curvature="0" />
    <path
       style="fill:none;stroke:#a70000;stroke-width:0.665;stroke-linecap:butt;stroke-linejoin:miter;stroke-opacity:1;stroke-miterlimit:4;stroke-dasharray:none"
       d="m 37.952272,64.47551 c 0.356359,0.178181 0.712719,0.356359 1.069078,0.53454 0.178181,0 0.365503,-0.05635 0.53454,0 0.119526,0.03984 0.154578,0.210924 0.267269,0.267269 0.07969,0.03984 0.178179,0 0.267269,0 0.08909,0 0.178181,0 0.267269,0 0.44545,0 0.8909,0 1.33635,0 0.979987,0 1.959975,0 2.939965,0 0.178178,0 0.356359,0 0.534538,0 0.178181,0 0.365503,0.05635 0.53454,0 0.119525,-0.03984 0.147741,-0.227428 0.267269,-0.267269 0.323339,-0.10778 1.239559,0.09101 1.603616,0 1.290629,-0.322659 -0.01326,-0.127013 0.801809,-0.53454 0.07968,-0.03984 0.18275,0.02817 0.267269,0 0.188989,-0.063 0.345551,-0.204274 0.53454,-0.267269 0.253553,-0.08452 0.542517,0.06482 0.801809,0 0.193262,-0.04832 0.345551,-0.204274 0.534538,-0.267269 0.08452,-0.02817 0.187584,0.03984 0.267269,0 0.112691,-0.05635 0.15458,-0.210926 0.267271,-0.267271 0.07969,-0.03984 0.178179,0 0.267269,0 0.258948,0 1.444252,0.05312 1.603616,0 0.188989,-0.063 0.345551,-0.204272 0.53454,-0.267269 0.08452,-0.02817 0.187584,0.03984 0.267269,0 0.112691,-0.05635 0.15458,-0.210923 0.267269,-0.267269 0.07968,-0.03984 0.178181,0 0.267271,0 0.267269,0 0.562756,0.119526 0.801807,0 0.178181,-0.08909 0.126407,-0.393676 0.267271,-0.53454 0.125992,-0.125992 0.375169,0.07968 0.534538,0 0.112691,-0.05635 0.147743,-0.227428 0.267269,-0.267269 0.169037,-0.05635 0.356359,0 0.53454,0 0.08909,0 0.187585,0.03984 0.267269,0 0.225383,-0.112691 0.295487,-0.454856 0.53454,-0.534538 0.169035,-0.05635 0.35636,0 0.534538,0 0.08909,0 0.187587,0.03984 0.267269,0 0.112691,-0.05635 0.162438,-0.197382 0.267271,-0.267271 0.134594,-0.588838 0.549823,-0.141277 0.80181,-0.267269 0.88642,-0.88642 -0.251987,0.125992 0.534537,-0.267269 0.112692,-0.05635 0.154578,-0.210926 0.267269,-0.267271 0.157695,-0.07885 0.617972,0.06128 0.801809,0 0.18899,-0.063 0.345552,-0.204272 0.534541,-0.267269 0.169034,-0.05635 0.356359,0 0.534537,0 0.44545,0 0.8909,0 1.336347,0 0.139761,0 0.998802,0.03514 1.069078,0 0.112692,-0.05635 0.154581,-0.210924 0.267272,-0.267269 0.07028,-0.03514 0.929317,0 1.069078,0 0.801807,0 1.603616,0 2.405425,0"
       id="path1621"
       inkscape:connector-curvature="0" />
    <path
       style="fill:none;stroke:#a70000;stroke-width:0.665;stroke-linecap:butt;stroke-linejoin:miter;stroke-opacity:1;stroke-miterlimit:4;stroke-dasharray:none"
       d="m 37.952272,72.226325 c 0.44545,0.35636 0.826119,0.813964 1.336347,1.069078 0.239054,0.119528 0.54252,-0.06482 0.801809,0 0.12223,0.03056 0.162438,0.197382 0.267269,0.267272 0.165754,0.1105 0.393676,0.126404 0.53454,0.267269 0.063,0.06299 -0.063,0.204274 0,0.267268 0.281726,0.281729 0.787353,0.252812 1.069078,0.534541 0.063,0.06299 -0.07968,0.227428 0,0.267269 0.113594,0.05679 1.112375,0 1.336347,0 0.08909,0 0.204275,-0.063 0.267269,0 0.125995,0.125992 -0.125992,0.408545 0,0.534537 0.063,0.063 0.204274,-0.06299 0.267272,0 0.06299,0.063 -0.03984,0.187587 0,0.267272 0.05635,0.112691 0.178178,0.178178 0.267269,0.267269 0.08909,0.08909 0.154577,0.210923 0.267268,0.267269 0.213815,0.106907 0.587994,-0.106908 0.80181,0 0.07968,0.03984 -0.07969,0.227427 0,0.267271 0.159369,0.07968 0.365503,-0.05635 0.53454,0 0.119525,0.03984 0.154577,0.210923 0.267269,0.267269 0.07968,0.03984 0.18084,-0.02162 0.267269,0 0.273314,0.06833 0.528494,0.19894 0.801809,0.267269 0.08643,0.02162 0.178178,0 0.267269,0 0.53454,0 1.069078,0 1.603618,0 0.08909,0 0.178178,0 0.267269,0 0.08909,0 0.19314,-0.04942 0.267269,0 0.209664,0.139776 0.324876,0.394763 0.53454,0.53454 0.07413,0.04942 0.178178,0 0.267269,0 0.08909,0 0.178178,0 0.267269,0 0.251724,0 1.184309,-0.05068 1.336347,0 0.119528,0.03984 0.162438,0.197379 0.267271,0.267269 0.165754,0.110501 0.345551,0.204274 0.534538,0.267269 0.08452,0.02817 0.178181,0 0.267269,0 0.178181,0 0.356359,0 0.53454,0 0.44545,0 0.890897,0 1.336347,0 2.049066,0 4.098134,0 6.147199,0 1.603619,0 3.207235,0 4.810853,0 0.386522,0 1.588651,0.05645 1.870885,0 0.195344,-0.03907 0.341278,-0.218954 0.53454,-0.267269 0.17286,-0.04321 0.35982,0.03494 0.534538,0 0.276256,-0.05525 0.525555,-0.212019 0.801809,-0.267269 0.17472,-0.03495 0.356359,0 0.53454,0 0.08909,0 0.187584,0.03984 0.267269,0 0.112691,-0.05635 0.178178,-0.178181 0.267269,-0.267271 0.356359,-0.08909 0.728025,-0.130847 1.069078,-0.267269 0.11698,-0.04679 0.15458,-0.210923 0.267269,-0.267269 0.07968,-0.03984 0.178181,0 0.267271,0 0.178179,0 0.35636,0 0.534538,0 0.44545,0 0.8909,0 1.33635,0 1.425437,0 2.850874,0 4.276312,0 0.534537,0 1.069078,0 1.603615,0 0.178181,0 0.361681,0.04321 0.534541,0 0.386524,-0.09663 0.682551,-0.437909 1.069078,-0.53454 0.172857,-0.04322 0.359817,0.03494 0.534538,0 0.276256,-0.05525 0.525552,-0.212019 0.801809,-0.267269 0.17472,-0.03494 0.356359,0 0.534537,0 0.80181,0 1.603619,0 2.405428,0 0.890897,0 1.781797,0 2.672694,0 0.178181,0 0.356359,0 0.53454,0 0.178179,0 0.375169,0.07968 0.534538,0 0.07968,-0.03984 -0.03984,-0.187585 0,-0.267269 0.05635,-0.112691 0.15458,-0.210926 0.267271,-0.267272 0.252228,-0.662768 0.720601,-0.151108 1.069078,-0.267269 0.188987,-0.06299 0.339196,-0.2282 0.534538,-0.267268 0.593974,-0.118796 1.273321,0.09959 1.870887,0 0.277892,-0.04632 0.525553,-0.212019 0.80181,-0.267269 0.174717,-0.03494 0.356359,0 0.534537,0 0.267269,-0.08909 0.528495,-0.19894 0.80181,-0.267272 0.349464,-0.08736 0.986882,0.08737 1.336346,0 0.347713,-0.08693 1.004555,-0.31334 1.336347,-0.534537 0.104834,-0.06989 0.15458,-0.210924 0.267272,-0.267269 0.159369,-0.07968 0.408546,0.125992 0.534538,0 0.063,-0.063 -0.063,-0.204274 0,-0.267272 2.56e-4,-2.54e-4 0.800597,5.29e-4 0.801809,0 0.119525,-0.03984 0.154577,-0.210923 0.267269,-0.267269 0.07969,-0.03984 0.182748,0.02817 0.267268,0 0.18899,-0.06299 0.34555,-0.204274 0.53454,-0.267268 0.16904,-0.05635 0.36168,0.04321 0.53454,0 0.27332,-0.06833 0.52849,-0.198941 0.80181,-0.267269 0.0864,-0.02162 0.17991,0.01746 0.26727,0 0.36019,-0.07204 0.70888,-0.195231 1.06908,-0.267272 0.17471,-0.03494 0.3655,0.05635 0.53453,0 0.18899,-0.06299 0.35636,-0.178178 0.53455,-0.267269 0.26726,0 0.54251,0.06482 0.8018,0 0.12223,-0.03056 0.16244,-0.197381 0.26727,-0.267269 0.16576,-0.110503 0.34555,-0.204274 0.53454,-0.267268 0.21513,-0.07171 0.89829,0.08539 1.06908,0 0.11269,-0.05635 0.15458,-0.210926 0.26727,-0.267272 0.0797,-0.03984 0.18758,0.03984 0.26727,0 0.11269,-0.05634 0.14504,-0.236712 0.26727,-0.267269 0.25929,-0.06482 0.5409,0.05798 0.80181,0 0.55003,-0.122229 1.06908,-0.356359 1.60361,-0.534537 0.26727,-0.08909 0.54023,-0.16264 0.80181,-0.267272 0.18496,-0.07398 0.34555,-0.204271 0.53454,-0.267269 0.0845,-0.02817 0.17818,0 0.26727,0 0.26727,-0.08909 0.54023,-0.162639 0.80181,-0.267269 0.18496,-0.07398 0.34128,-0.218953 0.53454,-0.267268 0.22167,-0.05542 1.16148,0.08743 1.33635,0 0.0797,-0.03984 -0.063,-0.204275 0,-0.267272 0.13363,-0.133633 0.66817,0.133636 0.8018,0 0.063,-0.063 -0.0398,-0.187584 0,-0.267269 0.22642,-0.452837 0.95426,-0.547081 1.33635,-0.801809 0.10483,-0.06989 0.14774,-0.227425 0.26727,-0.267269 0.16904,-0.05635 0.35982,0.03494 0.53454,0 0.27626,-0.05525 0.52555,-0.212018 0.80181,-0.267269 0.34944,-0.06989 0.731,0.112692 1.06908,0 0.37797,-0.125992 0.70287,-0.377592 1.06908,-0.53454 0.51789,-0.221954 1.08046,-0.325276 1.60361,-0.534538 0.62318,-0.249272 0.57656,-0.407908 1.33635,-0.53454 1.89567,0 0.15656,0.188989 1.06908,-0.267269 0.16798,-0.08399 0.90109,0.08399 1.06908,0 0.11269,-0.05635 0.14774,-0.227428 0.26727,-0.267269 0.12224,-0.04075 0.95014,0.05946 1.06907,0 0.1127,-0.05635 0.15458,-0.210926 0.26727,-0.267269 0.16799,-0.08399 0.9011,0.08399 1.06908,0 0.11269,-0.05635 0.15458,-0.210925 0.26727,-0.267271 0.0797,-0.03984 0.17818,0 0.26727,0 0.17818,0 0.35636,0 0.53454,0 0.62363,0 1.24726,0 1.87089,0 0.0891,0 0.17817,0 0.26727,0 0.0891,0 0.20427,0.063 0.26726,0 0.14087,-0.140862 0.12641,-0.393674 0.26728,-0.534538 0.0121,-0.01212 1.21033,0 1.33634,0 1.06908,0 2.13816,0 3.20724,0 0.0648,0 0.79321,-0.0086 0.80181,0 0.063,0.063 -0.063,0.204274 0,0.267269 0.0121,0.01212 1.21033,0 1.33634,0"
       id="path1629"
       inkscape:connector-curvature="0" />
    <rect
       y="52.678215"
       x="138.94273"
       height="19.318262"
       width="31.345392"
       id="rect1505"
       style="fill:#ffffff;fill-opacity:1;stroke:#000000;stroke-width:0.42214236;stroke-miterlimit:4;stroke-dasharray:none;stroke-opacity:1" />
    <text
       xml:space="preserve"
       style="font-style:normal;font-weight:normal;font-size:10.58333302px;line-height:1.25;font-family:sans-serif;letter-spacing:0px;word-spacing:0px;fill:#000000;fill-opacity:1;stroke:none;stroke-width:0.26458332"
       x="144.32553"
       y="63.13916"
       id="text1503"><tspan
         sodipodi:role="line"
         id="tspan1501"
         x="144.32553"
         y="63.13916"
         style="font-size:4.93888903px;stroke-width:0.26458332">Switch 2</tspan></text>
    <rect
       style="fill:#ffffff;fill-opacity:1;stroke:#000000;stroke-width:0.5805831;stroke-miterlimit:4;stroke-dasharray:none;stroke-opacity:1"
       id="rect1483"
       width="45.084965"
       height="16.754396"
       x="97.327904"
       y="15.33971" />
    <text
       xml:space="preserve"
       style="font-style:normal;font-weight:normal;font-size:10.58333302px;line-height:1.25;font-family:sans-serif;letter-spacing:0px;word-spacing:0px;fill:#000000;fill-opacity:1;stroke:none;stroke-width:0.26458332"
       x="109.84777"
       y="21.177845"
       id="text1487"><tspan
         sodipodi:role="line"
         id="tspan1485"
         x="109.84777"
         y="21.177845"
         style="font-size:4.93888903px;stroke-width:0.26458332">0°/90° </tspan></text>
    <text
       xml:space="preserve"
       style="font-style:normal;font-weight:normal;font-size:10.58333302px;line-height:1.25;font-family:sans-serif;letter-spacing:0px;word-spacing:0px;fill:#000000;fill-opacity:1;stroke:none;stroke-width:0.26458332"
       x="98.889725"
       y="28.12685"
       id="text1491"><tspan
         sodipodi:role="line"
         id="tspan1489"
         x="98.889725"
         y="28.12685"
         style="font-size:4.93888903px;stroke-width:0.26458332">RF Power Splitter</tspan></text>
  </g>
</svg>
