<?xml version="1.0" encoding="UTF-8" standalone="no"?>
<svg
   xmlns:dc="http://purl.org/dc/elements/1.1/"
   xmlns:cc="http://creativecommons.org/ns#"
   xmlns:rdf="http://www.w3.org/1999/02/22-rdf-syntax-ns#"
   xmlns:svg="http://www.w3.org/2000/svg"
   xmlns="http://www.w3.org/2000/svg"
   xmlns:sodipodi="http://sodipodi.sourceforge.net/DTD/sodipodi-0.dtd"
   xmlns:inkscape="http://www.inkscape.org/namespaces/inkscape"
   inkscape:version="1.0 (6e3e5246a0, 2020-05-07)"
   sodipodi:docname="specpaperhigh.svg"
   viewBox="0 0 568.11724 430.87189"
   height="430.87189"
   width="568.11725"
   xml:space="preserve"
   id="svg712"
   version="1.1"><metadata
     id="metadata718"><rdf:RDF><cc:Work
         rdf:about=""><dc:format>image/svg+xml</dc:format><dc:type
           rdf:resource="http://purl.org/dc/dcmitype/StillImage" /><dc:title></dc:title></cc:Work></rdf:RDF></metadata><defs
     id="defs716"><clipPath
       id="clipPath732"
       clipPathUnits="userSpaceOnUse"><path
         id="path730"
         d="M 77.580024,67.448 H 443.52 V 328.32 H 77.580024 Z" /></clipPath><clipPath
       id="clipPath742"
       clipPathUnits="userSpaceOnUse"><path
         id="path740"
         d="M 77.580024,67.448 H 443.52 V 328.32 H 77.580024 Z" /></clipPath><clipPath
       id="clipPath752"
       clipPathUnits="userSpaceOnUse"><path
         id="path750"
         d="M 77.580024,67.448 H 443.52 V 328.32 H 77.580024 Z" /></clipPath><clipPath
       id="clipPath778"
       clipPathUnits="userSpaceOnUse"><path
         id="path776"
         d="M -1021,-463 H 1794 V 1233 H -1021 Z" /></clipPath><clipPath
       id="clipPath802"
       clipPathUnits="userSpaceOnUse"><path
         id="path800"
         d="M -1021,-463 H 1794 V 1233 H -1021 Z" /></clipPath><clipPath
       id="clipPath868"
       clipPathUnits="userSpaceOnUse"><path
         id="path866"
         d="M -1021,-463 H 1794 V 1233 H -1021 Z" /></clipPath><clipPath
       id="clipPath990"
       clipPathUnits="userSpaceOnUse"><path
         id="path988"
         d="M -1021,-463 H 1794 V 1233 H -1021 Z" /></clipPath><clipPath
       id="clipPath1000"
       clipPathUnits="userSpaceOnUse"><path
         id="path998"
         d="M 77.580024,67.448 H 443.52 V 328.32 H 77.580024 Z" /></clipPath><clipPath
       id="clipPath1010"
       clipPathUnits="userSpaceOnUse"><path
         id="path1008"
         d="M 77.580024,67.448 H 443.52 V 328.32 H 77.580024 Z" /></clipPath><clipPath
       id="clipPath1020"
       clipPathUnits="userSpaceOnUse"><path
         id="path1018"
         d="M 77.580024,67.448 H 443.52 V 328.32 H 77.580024 Z" /></clipPath><clipPath
       id="clipPath1030"
       clipPathUnits="userSpaceOnUse"><path
         id="path1028"
         d="M 77.580024,67.448 H 443.52 V 328.32 H 77.580024 Z" /></clipPath><clipPath
       id="clipPath1040"
       clipPathUnits="userSpaceOnUse"><path
         id="path1038"
         d="M 77.580024,67.448 H 443.52 V 328.32 H 77.580024 Z" /></clipPath><clipPath
       id="clipPath1050"
       clipPathUnits="userSpaceOnUse"><path
         id="path1048"
         d="M 77.580024,67.448 H 443.52 V 328.32 H 77.580024 Z" /></clipPath><clipPath
       id="clipPath1060"
       clipPathUnits="userSpaceOnUse"><path
         id="path1058"
         d="M 77.580024,67.448 H 443.52 V 328.32 H 77.580024 Z" /></clipPath></defs><sodipodi:namedview
     inkscape:current-layer="g756"
     inkscape:window-maximized="1"
     inkscape:window-y="27"
     inkscape:window-x="70"
     inkscape:cy="138.71869"
     inkscape:cx="249.13866"
     inkscape:zoom="0.73709606"
     showgrid="false"
     id="namedview714"
     inkscape:window-height="704"
     inkscape:window-width="1296"
     inkscape:pageshadow="2"
     inkscape:pageopacity="0"
     guidetolerance="10"
     gridtolerance="10"
     objecttolerance="10"
     borderopacity="1"
     bordercolor="#666666"
     pagecolor="#ffffff" /><g
     transform="matrix(1.3333333,0,0,-1.3333333,-24.045733,438.29332)"
     inkscape:label="specpaperhigh"
     inkscape:groupmode="layer"
     id="g720"><path
       id="path724"
       style="fill:#ffffff;fill-opacity:1;fill-rule:nonzero;stroke:none"
       d="M 77.580024,67.448 H 443.52 V 328.32 H 77.580024 Z" /><g
       id="g726"><g
         clip-path="url(#clipPath732)"
         id="g728"><path
           id="path734"
           style="fill:#1f77b4;fill-opacity:1;fill-rule:nonzero;stroke:#000000;stroke-width:1;stroke-linecap:butt;stroke-linejoin:miter;stroke-miterlimit:10;stroke-dasharray:none;stroke-opacity:1"
           d="m 158.8187,67.448 -1.8297,7.82616 h 1.64673 v 52.1744 h 0.36594 v -52.1744 h 1.64673 z" /></g></g><g
       id="g736"><g
         clip-path="url(#clipPath742)"
         id="g738"><path
           id="path744"
           style="fill:#1f77b4;fill-opacity:1;fill-rule:nonzero;stroke:#000000;stroke-width:1;stroke-linecap:butt;stroke-linejoin:miter;stroke-miterlimit:10;stroke-dasharray:none;stroke-opacity:1"
           d="m 292.09404,67.448 -1.8297,7.82616 h 1.64673 V 223.9712 h 0.36594 V 75.27416 h 1.64673 z" /></g></g><g
       id="g746"><g
         clip-path="url(#clipPath752)"
         id="g748"><path
           id="path754"
           style="fill:#1f77b4;fill-opacity:1;fill-rule:nonzero;stroke:#000000;stroke-width:1;stroke-linecap:butt;stroke-linejoin:miter;stroke-miterlimit:10;stroke-dasharray:none;stroke-opacity:1"
           d="m 77.580024,146.23134 10.978199,1.30436 v -1.17392 h 7.3188 v -0.26087 h -7.3188 v -1.17393 z" /></g></g><g
       id="g756"><path
         id="path758"
         style="fill:#000000;fill-opacity:1;fill-rule:nonzero;stroke:#000000;stroke-width:0.8;stroke-linecap:butt;stroke-linejoin:round;stroke-miterlimit:10;stroke-dasharray:none;stroke-opacity:1"
         d="m 136.25468,67.448 v -3.5" /><g
         transform="matrix(1.5438706,0,0,1.5438706,116.29867,41.011735)"
         id="g760"><text
           id="text764"
           style="font-style:normal;font-variant:normal;font-weight:normal;font-stretch:normal;font-size:14.8976px;font-family:sans-serif;-inkscape-font-specification:'sans-serif, Normal';font-variant-ligatures:normal;font-variant-caps:normal;font-variant-numeric:normal;font-variant-east-asian:normal;writing-mode:lr-tb;fill:#000000;fill-opacity:1;fill-rule:nonzero;stroke:none"
           transform="matrix(1,0,0,-1,0,0.5625)"><tspan
             id="tspan762"
             sodipodi:role="line"
             y="0"
             x="0 10.179688">10⁻³</tspan></text></g><path
         id="path782"
         style="fill:#000000;fill-opacity:1;fill-rule:nonzero;stroke:#000000;stroke-width:0.8;stroke-linecap:butt;stroke-linejoin:round;stroke-miterlimit:10;stroke-dasharray:none;stroke-opacity:1"
         d="m 200.88198,67.448 v -3.5" /><g
         transform="matrix(1.5289666,0,0,1.5289666,180.95216,40.803041)"
         id="g784"><text
           id="text788"
           style="font-style:normal;font-variant:normal;font-weight:normal;font-stretch:normal;font-size:15.0428px;font-family:'DejaVu Sans';-inkscape-font-specification:'DejaVu Sans, Normal';font-variant-ligatures:normal;font-variant-caps:normal;font-variant-numeric:normal;font-variant-east-asian:normal;writing-mode:lr-tb;fill:#000000;fill-opacity:1;fill-rule:nonzero;stroke:none"
           transform="matrix(1,0,0,-1,0,0.7046875)"><tspan
             id="tspan786"
             sodipodi:role="line"
             y="0"
             x="0 10.179688">10⁻¹</tspan></text></g><path
         id="path806"
         style="fill:#000000;fill-opacity:1;fill-rule:nonzero;stroke:#000000;stroke-width:0.8;stroke-linecap:butt;stroke-linejoin:round;stroke-miterlimit:10;stroke-dasharray:none;stroke-opacity:1"
         d="m 265.50928,67.448 v -3.5" /><g
         transform="matrix(1.5943349,0,0,1.5943349,249.96455,40.756906)"
         id="g808"><text
           id="text812"
           style="font-style:normal;font-variant:normal;font-weight:normal;font-stretch:normal;font-size:14.4261px;font-family:'DejaVu Sans';-inkscape-font-specification:'DejaVu Sans, Normal';font-variant-ligatures:normal;font-variant-caps:normal;font-variant-numeric:normal;font-variant-east-asian:normal;writing-mode:lr-tb;fill:#000000;fill-opacity:1;fill-rule:nonzero;stroke:none"
           transform="matrix(1,0,0,-1,0,0.7046875)"><tspan
             id="tspan810"
             sodipodi:role="line"
             y="0"
             x="0 10.179688">10¹</tspan></text></g><path
         id="path818"
         style="fill:#000000;fill-opacity:1;fill-rule:nonzero;stroke:#000000;stroke-width:0.8;stroke-linecap:butt;stroke-linejoin:round;stroke-miterlimit:10;stroke-dasharray:none;stroke-opacity:1"
         d="m 330.13658,67.448 v -3.5" /><g
         transform="matrix(1.5893621,0,0,1.5893621,314.60059,40.98644)"
         id="g820"><text
           id="text824"
           style="font-style:normal;font-variant:normal;font-weight:normal;font-stretch:normal;font-size:14.4712px;font-family:'DejaVu Sans';-inkscape-font-specification:'DejaVu Sans, Normal';font-variant-ligatures:normal;font-variant-caps:normal;font-variant-numeric:normal;font-variant-east-asian:normal;writing-mode:lr-tb;fill:#000000;fill-opacity:1;fill-rule:nonzero;stroke:none"
           transform="matrix(1,0,0,-1,0,0.5625)"><tspan
             id="tspan822"
             sodipodi:role="line"
             y="0"
             x="0 10.179688">10³</tspan></text></g><path
         id="path830"
         style="fill:#000000;fill-opacity:1;fill-rule:nonzero;stroke:#000000;stroke-width:0.8;stroke-linecap:butt;stroke-linejoin:round;stroke-miterlimit:10;stroke-dasharray:none;stroke-opacity:1"
         d="m 394.76387,67.448 v -3.5" /><g
         transform="matrix(1.5343946,0,0,1.5343946,379.3245,40.799199)"
         id="g832"><text
           id="text836"
           style="font-style:normal;font-variant:normal;font-weight:normal;font-stretch:normal;font-size:14.9896px;font-family:'DejaVu Sans';-inkscape-font-specification:'DejaVu Sans, Normal';font-variant-ligatures:normal;font-variant-caps:normal;font-variant-numeric:normal;font-variant-east-asian:normal;writing-mode:lr-tb;fill:#000000;fill-opacity:1;fill-rule:nonzero;stroke:none"
           transform="matrix(1,0,0,-1,0,0.7046875)"><tspan
             id="tspan834"
             sodipodi:role="line"
             y="0"
             x="0 10.179688">10⁵</tspan></text></g><g
         transform="matrix(1.3535422,0,0,1.3535422,158.51527,11.298922)"
         id="g842"><text
           y="0.60280788"
           x="-11.565008"
           id="text846"
           style="font-variant:normal;font-weight:normal;font-size:17.4639px;font-family:'DejaVu Sans';-inkscape-font-specification:DejaVuSans;writing-mode:lr-tb;fill:#000000;fill-opacity:1;fill-rule:nonzero;stroke:none;stroke-width:1.0915"
           transform="scale(1,-1)"><tspan
             style="stroke-width:1.0915"
             id="tspan844"
             sodipodi:role="line"
             y="0.60280788"
             x="-11.565008 -1.5198134 5.6601977 16.404634 27.490162 38.558636 49.303074 60.371548 69.97332 80.308441 85.859734">Frequency [</tspan></text><text
           y="0.60280788"
           x="92.673073"
           id="text850"
           style="font-style:italic;font-variant:normal;font-size:17.4639px;font-family:'DejaVu Sans';-inkscape-font-specification:DejaVuSans-Oblique;writing-mode:lr-tb;fill:#000000;fill-opacity:1;fill-rule:nonzero;stroke:none;stroke-width:1.0915"
           transform="scale(1,-1)"><tspan
             style="stroke-width:1.0915"
             id="tspan848"
             y="0.60280788"
             x="92.673073">s</tspan></text><text
           y="-6.0826187"
           x="112.82816"
           id="text854"
           style="font-variant:normal;font-weight:normal;font-size:12.2248px;font-family:'DejaVu Sans';-inkscape-font-specification:DejaVuSans;writing-mode:lr-tb;fill:#000000;fill-opacity:1;fill-rule:nonzero;stroke:none;stroke-width:1.0915"
           transform="scale(1,-1)"><tspan
             style="stroke-width:1.0915"
             id="tspan852"
             y="-6.0826187"
             x="112.82816">1</tspan></text><text
           y="0.60280788"
           x="121.08347"
           id="text858"
           style="font-variant:normal;font-weight:normal;font-size:17.4639px;font-family:'DejaVu Sans';-inkscape-font-specification:DejaVuSans;writing-mode:lr-tb;fill:#000000;fill-opacity:1;fill-rule:nonzero;stroke:none;stroke-width:1.0915"
           transform="scale(1,-1)"><tspan
             style="stroke-width:1.0915"
             id="tspan856"
             y="0.60280788"
             x="121.08347">]</tspan></text><g
           transform="matrix(0.01222478,0,0,0.01222478,102.58513,6.0826188)"
           id="g860"><g
             id="g862"><g
               clip-path="url(#clipPath868)"
               id="g864"><path
                 id="path870"
                 style="fill:#000000;fill-opacity:1;fill-rule:nonzero;stroke:none"
                 d="M 106,355 H 732 V 272 H 106 v 83" /></g></g></g></g><path
         id="path872"
         style="fill:#000000;fill-opacity:1;fill-rule:nonzero;stroke:#000000;stroke-width:0.8;stroke-linecap:butt;stroke-linejoin:round;stroke-miterlimit:10;stroke-dasharray:none;stroke-opacity:1"
         d="m 77.580024,104.26266 h -3.5" /><g
         transform="matrix(1.608298,0,0,1.608298,25.626457,90.36102)"
         id="g874"><text
           id="text878"
           style="font-style:normal;font-variant:normal;font-weight:normal;font-stretch:normal;font-size:14.3008px;font-family:'DejaVu Sans';-inkscape-font-specification:'DejaVu Sans, Normal';font-variant-ligatures:normal;font-variant-caps:normal;font-variant-numeric:normal;font-variant-east-asian:normal;writing-mode:lr-tb;fill:#000000;fill-opacity:1;fill-rule:nonzero;stroke:none"
           transform="matrix(1,0,0,-1,0,0.5625)"><tspan
             id="tspan876"
             sodipodi:role="line"
             y="0"
             x="0 10.179688">10⁰</tspan></text></g><path
         id="path884"
         style="fill:#000000;fill-opacity:1;fill-rule:nonzero;stroke:#000000;stroke-width:0.8;stroke-linecap:butt;stroke-linejoin:round;stroke-miterlimit:10;stroke-dasharray:none;stroke-opacity:1"
         d="m 77.580024,181.74142 h -3.5" /><g
         transform="matrix(1.679197,0,0,1.679197,25.62665,175.08074)"
         id="g886"><text
           id="text890"
           style="font-style:normal;font-variant:normal;font-weight:normal;font-stretch:normal;font-size:13.697px;font-family:'DejaVu Sans';-inkscape-font-specification:'DejaVu Sans, Normal';font-variant-ligatures:normal;font-variant-caps:normal;font-variant-numeric:normal;font-variant-east-asian:normal;writing-mode:lr-tb;fill:#000000;fill-opacity:1;fill-rule:nonzero;stroke:none"
           transform="matrix(1,0,0,-1,0,0.7046875)"><tspan
             id="tspan888"
             sodipodi:role="line"
             y="0"
             x="0 10.179688">10¹</tspan></text></g><path
         id="path896"
         style="fill:#000000;fill-opacity:1;fill-rule:nonzero;stroke:#000000;stroke-width:0.8;stroke-linecap:butt;stroke-linejoin:round;stroke-miterlimit:10;stroke-dasharray:none;stroke-opacity:1"
         d="m 77.580024,259.22017 h -3.5" /><g
         transform="matrix(1.5254327,0,0,1.5254327,25.626643,252.70773)"
         id="g898"><text
           id="text902"
           style="font-style:normal;font-variant:normal;font-weight:normal;font-stretch:normal;font-size:15.0777px;font-family:'DejaVu Sans';-inkscape-font-specification:'DejaVu Sans, Normal';font-variant-ligatures:normal;font-variant-caps:normal;font-variant-numeric:normal;font-variant-east-asian:normal;writing-mode:lr-tb;fill:#000000;fill-opacity:1;fill-rule:nonzero;stroke:none"
           transform="matrix(1,0,0,-1,0,0.5625)"><tspan
             id="tspan900"
             sodipodi:role="line"
             y="0"
             x="0 10.179688">10²</tspan></text></g><path
         id="path908"
         style="fill:#000000;fill-opacity:1;fill-rule:nonzero;stroke:#000000;stroke-width:0.6;stroke-linecap:butt;stroke-linejoin:round;stroke-miterlimit:10;stroke-dasharray:none;stroke-opacity:1"
         d="m 77.580024,73.430768 h -2" /><path
         id="path910"
         style="fill:#000000;fill-opacity:1;fill-rule:nonzero;stroke:#000000;stroke-width:0.6;stroke-linecap:butt;stroke-linejoin:round;stroke-miterlimit:10;stroke-dasharray:none;stroke-opacity:1"
         d="m 77.580024,80.939235 h -2" /><path
         id="path912"
         style="fill:#000000;fill-opacity:1;fill-rule:nonzero;stroke:#000000;stroke-width:0.6;stroke-linecap:butt;stroke-linejoin:round;stroke-miterlimit:10;stroke-dasharray:none;stroke-opacity:1"
         d="m 77.580024,87.0741 h -2" /><path
         id="path914"
         style="fill:#000000;fill-opacity:1;fill-rule:nonzero;stroke:#000000;stroke-width:0.6;stroke-linecap:butt;stroke-linejoin:round;stroke-miterlimit:10;stroke-dasharray:none;stroke-opacity:1"
         d="m 77.580024,92.261053 h -2" /><path
         id="path916"
         style="fill:#000000;fill-opacity:1;fill-rule:nonzero;stroke:#000000;stroke-width:0.6;stroke-linecap:butt;stroke-linejoin:round;stroke-miterlimit:10;stroke-dasharray:none;stroke-opacity:1"
         d="m 77.580024,96.754197 h -2" /><path
         id="path918"
         style="fill:#000000;fill-opacity:1;fill-rule:nonzero;stroke:#000000;stroke-width:0.6;stroke-linecap:butt;stroke-linejoin:round;stroke-miterlimit:10;stroke-dasharray:none;stroke-opacity:1"
         d="m 77.580024,100.71743 h -2" /><path
         id="path920"
         style="fill:#000000;fill-opacity:1;fill-rule:nonzero;stroke:#000000;stroke-width:0.6;stroke-linecap:butt;stroke-linejoin:round;stroke-miterlimit:10;stroke-dasharray:none;stroke-opacity:1"
         d="m 77.580024,127.58609 h -2" /><path
         id="path922"
         style="fill:#000000;fill-opacity:1;fill-rule:nonzero;stroke:#000000;stroke-width:0.6;stroke-linecap:butt;stroke-linejoin:round;stroke-miterlimit:10;stroke-dasharray:none;stroke-opacity:1"
         d="m 77.580024,141.22942 h -2" /><path
         id="path924"
         style="fill:#000000;fill-opacity:1;fill-rule:nonzero;stroke:#000000;stroke-width:0.6;stroke-linecap:butt;stroke-linejoin:round;stroke-miterlimit:10;stroke-dasharray:none;stroke-opacity:1"
         d="m 77.580024,150.90952 h -2" /><path
         id="path926"
         style="fill:#000000;fill-opacity:1;fill-rule:nonzero;stroke:#000000;stroke-width:0.6;stroke-linecap:butt;stroke-linejoin:round;stroke-miterlimit:10;stroke-dasharray:none;stroke-opacity:1"
         d="m 77.580024,158.41799 h -2" /><path
         id="path928"
         style="fill:#000000;fill-opacity:1;fill-rule:nonzero;stroke:#000000;stroke-width:0.6;stroke-linecap:butt;stroke-linejoin:round;stroke-miterlimit:10;stroke-dasharray:none;stroke-opacity:1"
         d="m 77.580024,164.55285 h -2" /><path
         id="path930"
         style="fill:#000000;fill-opacity:1;fill-rule:nonzero;stroke:#000000;stroke-width:0.6;stroke-linecap:butt;stroke-linejoin:round;stroke-miterlimit:10;stroke-dasharray:none;stroke-opacity:1"
         d="m 77.580024,169.73981 h -2" /><path
         id="path932"
         style="fill:#000000;fill-opacity:1;fill-rule:nonzero;stroke:#000000;stroke-width:0.6;stroke-linecap:butt;stroke-linejoin:round;stroke-miterlimit:10;stroke-dasharray:none;stroke-opacity:1"
         d="m 77.580024,174.23295 h -2" /><path
         id="path934"
         style="fill:#000000;fill-opacity:1;fill-rule:nonzero;stroke:#000000;stroke-width:0.6;stroke-linecap:butt;stroke-linejoin:round;stroke-miterlimit:10;stroke-dasharray:none;stroke-opacity:1"
         d="m 77.580024,178.19619 h -2" /><path
         id="path936"
         style="fill:#000000;fill-opacity:1;fill-rule:nonzero;stroke:#000000;stroke-width:0.6;stroke-linecap:butt;stroke-linejoin:round;stroke-miterlimit:10;stroke-dasharray:none;stroke-opacity:1"
         d="m 77.580024,205.06485 h -2" /><path
         id="path938"
         style="fill:#000000;fill-opacity:1;fill-rule:nonzero;stroke:#000000;stroke-width:0.6;stroke-linecap:butt;stroke-linejoin:round;stroke-miterlimit:10;stroke-dasharray:none;stroke-opacity:1"
         d="m 77.580024,218.70818 h -2" /><path
         id="path940"
         style="fill:#000000;fill-opacity:1;fill-rule:nonzero;stroke:#000000;stroke-width:0.6;stroke-linecap:butt;stroke-linejoin:round;stroke-miterlimit:10;stroke-dasharray:none;stroke-opacity:1"
         d="m 77.580024,228.38828 h -2" /><path
         id="path942"
         style="fill:#000000;fill-opacity:1;fill-rule:nonzero;stroke:#000000;stroke-width:0.6;stroke-linecap:butt;stroke-linejoin:round;stroke-miterlimit:10;stroke-dasharray:none;stroke-opacity:1"
         d="m 77.580024,235.89674 h -2" /><path
         id="path944"
         style="fill:#000000;fill-opacity:1;fill-rule:nonzero;stroke:#000000;stroke-width:0.6;stroke-linecap:butt;stroke-linejoin:round;stroke-miterlimit:10;stroke-dasharray:none;stroke-opacity:1"
         d="m 77.580024,242.03161 h -2" /><path
         id="path946"
         style="fill:#000000;fill-opacity:1;fill-rule:nonzero;stroke:#000000;stroke-width:0.6;stroke-linecap:butt;stroke-linejoin:round;stroke-miterlimit:10;stroke-dasharray:none;stroke-opacity:1"
         d="m 77.580024,247.21856 h -2" /><path
         id="path948"
         style="fill:#000000;fill-opacity:1;fill-rule:nonzero;stroke:#000000;stroke-width:0.6;stroke-linecap:butt;stroke-linejoin:round;stroke-miterlimit:10;stroke-dasharray:none;stroke-opacity:1"
         d="m 77.580024,251.71171 h -2" /><path
         id="path950"
         style="fill:#000000;fill-opacity:1;fill-rule:nonzero;stroke:#000000;stroke-width:0.6;stroke-linecap:butt;stroke-linejoin:round;stroke-miterlimit:10;stroke-dasharray:none;stroke-opacity:1"
         d="m 77.580024,255.67494 h -2" /><path
         id="path952"
         style="fill:#000000;fill-opacity:1;fill-rule:nonzero;stroke:#000000;stroke-width:0.6;stroke-linecap:butt;stroke-linejoin:round;stroke-miterlimit:10;stroke-dasharray:none;stroke-opacity:1"
         d="m 77.580024,282.5436 h -2" /><path
         id="path954"
         style="fill:#000000;fill-opacity:1;fill-rule:nonzero;stroke:#000000;stroke-width:0.6;stroke-linecap:butt;stroke-linejoin:round;stroke-miterlimit:10;stroke-dasharray:none;stroke-opacity:1"
         d="m 77.580024,296.18693 h -2" /><path
         id="path956"
         style="fill:#000000;fill-opacity:1;fill-rule:nonzero;stroke:#000000;stroke-width:0.6;stroke-linecap:butt;stroke-linejoin:round;stroke-miterlimit:10;stroke-dasharray:none;stroke-opacity:1"
         d="m 77.580024,305.86703 h -2" /><path
         id="path958"
         style="fill:#000000;fill-opacity:1;fill-rule:nonzero;stroke:#000000;stroke-width:0.6;stroke-linecap:butt;stroke-linejoin:round;stroke-miterlimit:10;stroke-dasharray:none;stroke-opacity:1"
         d="m 77.580024,313.3755 h -2" /><path
         id="path960"
         style="fill:#000000;fill-opacity:1;fill-rule:nonzero;stroke:#000000;stroke-width:0.6;stroke-linecap:butt;stroke-linejoin:round;stroke-miterlimit:10;stroke-dasharray:none;stroke-opacity:1"
         d="m 77.580024,319.51036 h -2" /><path
         id="path962"
         style="fill:#000000;fill-opacity:1;fill-rule:nonzero;stroke:#000000;stroke-width:0.6;stroke-linecap:butt;stroke-linejoin:round;stroke-miterlimit:10;stroke-dasharray:none;stroke-opacity:1"
         d="m 77.580024,324.69732 h -2" /></g><g
       id="g994"><g
         clip-path="url(#clipPath1000)"
         id="g996"><path
           id="path1002"
           style="fill:none;stroke:#0000ff;stroke-width:1.5;stroke-linecap:square;stroke-linejoin:round;stroke-miterlimit:10;stroke-dasharray:none;stroke-opacity:1"
           d="m 94.213659,142.4289 9.727381,0.0878 5.69015,-7.10162 4.03722,8.65471 3.13152,1.63989 2.55864,-3.53978 2.16329,-7.39174 1.87393,10.22597 1.65293,-0.11163 1.47859,3.44446 1.33755,-1.72041 1.22108,-1.96107 1.12329,-5.48312 1.04001,1.65541 0.96822,-4.26483 0.90571,7.63576 0.85078,-2.84604 0.80214,-4.01354 0.75876,4.154 0.71983,2.37542 0.68471,-1.47112 0.65284,0.46056 0.62382,0.0149 0.59727,3.48931 0.57288,-13.51816 0.55041,6.28048 0.52964,4.23522 0.51036,-0.37323 0.49246,4.2438 0.47577,-1.30839 0.46016,-4.2372 0.44555,7.07959 0.43183,-12.60723 0.41895,7.01955 0.4068,-3.51517 0.77985,3.81589 0.37425,5.93017 0.36453,-5.96513 0.3553,-2.2338 0.34653,0.7333 0.33818,-5.12927 0.33021,8.62984 0.32263,-5.8218 0.31538,5.91312 0.30844,2.27564 0.30181,-8.45494 0.29546,3.62602 0.28936,-3.73614 0.28352,7.21861 0.2779,-5.18711 0.27251,1.302 0.26731,-7.58113 0.26232,6.26003 0.25751,2.44514 0.25286,5.84357 0.24839,-0.47076 0.24407,-11.3403 0.2399,8.776 0.23586,-5.11994 0.46016,4.81919 0.22455,2.98919 0.221,4.48797 0.21758,-2.72845 0.21426,-4.80757 0.21104,1.43405 0.20791,-8.10744 0.4068,13.21503 0.19906,-6.26751 0.19628,0.0169 0.19357,-12.39155 0.37931,15.10459 0.18588,-10.71313 0.18345,8.68019 0.18108,-6.9726 0.17877,-2.40785 0.17653,0.27938 0.17433,-3.48347 0.3423,10.30785 0.16807,-4.77616 0.16608,-0.38256 0.16414,8.24797 0.16224,-13.62896 0.16039,1.36875 0.15857,13.38385 0.46525,-12.92462 0.15172,2.01279 0.15009,-7.39733 0.1485,10.85913 0.14695,-4.47386 0.14543,0.33304 0.28641,-3.99993 0.28069,13.58687 0.27517,-7.19856 0.26989,1.28315 0.26479,-9.14271 0.25989,12.35398 0.25517,-2.23854 0.2506,-0.5974 0.24622,-7.18767 0.47982,11.8435 0.2339,-5.98672 0.23007,5.39121 0.22635,-1.09887 0.44204,2.39939 0.21591,2.20607 0.21263,-10.4072 0.20947,1.70057 0.20638,-1.24431 0.20339,10.07431 0.20048,-3.64401 0.19766,-7.15189 0.19492,9.05017 0.38189,-10.17183 0.18711,11.62939 0.36692,-16.75578 0.17992,16.11101 0.17764,1.93129 0.17542,-4.05382 0.25909,-3.20133 0.2544,-9.41697 0.24986,5.72154 0.24549,2.61757 0.24128,-2.72867 0.23719,-0.95094 0.23325,0.0526 0.22944,-3.82287 0.22575,3.29698 0.22217,0.0401 0.21871,-9.075 0.21536,17.03724 0.21209,-4.67353 0.20894,-1.38258 0.20588,4.22203 0.2029,0.87792 0.20001,-5.9655 0.1972,3.79361 0.19446,-3.09988 0.19181,8.29507 0.18922,1.83049 0.1867,-3.8336 0.24514,4.86743 0.24092,-2.58602 0.23686,-14.56221 0.23293,10.17725 0.22913,-2.83507 0.22544,5.01094 0.22188,-1.07656 0.21843,4.08782 0.21508,-14.38797 0.21183,4.3507 0.20868,8.2656 0.20563,1.30026 0.20265,-10.17727 0.19977,13.3144 0.19697,-3.97635 0.19424,-6.36489 0.23908,-1.52873 0.23508,1.22921 0.2312,2.49411 0.22745,-1.23093 0.22383,7.3194 0.43722,-9.79429 0.21361,4.61088 0.2104,-8.52345 0.20729,7.13688 0.20428,0.2223 0.20135,-1.43196 0.1985,2.92555 0.23455,-5.36123 0.23069,0.66438 0.22697,4.06381 0.4432,-5.59145 0.21646,1.34232 0.21318,0.20776 0.20998,10.06613 0.20689,-5.32825 0.20388,5.0133 0.20096,-10.09946 0.23088,6.78272 0.22714,-4.47506 0.44354,3.22843 0.21662,-3.64611 0.21332,4.57014 0.21014,-9.5836 0.20703,0.47527 0.20402,-6.44957 0.2296,8.30848 0.2259,-1.31711 0.22232,-4.47892 0.21885,12.59734 0.21549,-7.29114 0.21223,1.5461 0.20907,6.88455 0.20601,-4.62498 0.22819,-2.32271 0.22454,7.59534 0.22101,-12.01865 0.21758,-0.24728 0.21426,10.4896 0.41894,-3.77162 0.22746,-7.18458 0.22383,2.35596 0.22031,10.58681 0.21691,-7.58088 0.2136,-1.56189 0.21041,9.22086 0.20729,1.90557 0.44555,-8.51397 0.85079,9.65628 0.22335,-16.28332 0.21985,11.27796 0.21646,-6.86302 0.21318,-0.18739 0.20998,-4.84167 0.22399,-0.0368 0.22047,10.53012 0.21706,-10.10921 0.21376,2.70422 0.21055,-1.7459 0.22327,8.14067 0.21977,-0.67222 0.21638,1.15973 0.2131,0.0454 0.2099,-13.56462 0.22148,8.28029 0.21803,-6.52301 0.21469,16.78788 0.21146,-6.6541 0.2221,-1.93218 0.21864,6.70778 0.42732,-10.67979 0.22183,0.61005 0.21838,7.10681 0.21503,-4.36763 0.21178,6.27993 0.22081,-8.60359 0.2174,1.78191 0.21407,4.2918 0.21086,-1.71464 0.21919,2.62506 0.21582,-0.78956 0.21255,-6.24288 0.22032,5.8748 0.2169,1.62504 0.21361,-9.42834 0.22084,2.74925 0.21742,-0.66904 0.2141,6.10815 0.22085,-3.79221 0.21743,-1.6869 0.65151,11.1544 0.43325,-1.81625 0.21619,-3.98683 0.2129,-7.23498 0.21839,0.83987 0.21505,5.13557 0.22021,8.91719 0.2168,-14.53929 0.21351,10.66488 0.43332,-8.38249 0.21952,-0.87558 0.21615,5.97944 0.21286,-3.63326 0.64873,-3.01289 0.21448,9.25825 0.21823,-9.86443 0.21489,4.55557 0.21843,-0.0184 0.21508,-2.07287 0.2184,2.28662 0.21506,-0.48652 0.21817,-8.97388 0.21484,14.90032 0.21777,0.99464 0.21445,-18.96068 0.2172,14.67054 0.2139,0.0499 0.21649,2.22147 0.43448,-5.46467 0.21784,4.34606 0.21451,-6.42177 0.21666,0.87132 0.21865,4.00472 0.2153,0.274 0.21718,4.75385 0.21892,-10.54858 0.21556,2.52339 0.2172,-3.53198 0.21871,12.14749 0.21535,-10.15803 0.21678,3.77806 0.21808,-5.87223 0.21475,-2.10029 0.21598,10.21632 0.43522,-2.79696 0.21478,1.36135 0.21574,-3.32042 0.21661,1.87416 0.21739,-7.0247 0.21808,-0.89053 0.21475,8.76198 0.21539,2.23305 0.21597,-5.52946 0.21646,4.84145 0.21689,-20.75093 0.43476,30.68497 0.21774,-6.92667 0.21791,-0.18722 0.43606,-16.88913 0.21805,4.53153 0.21799,-1.229 0.21789,7.92618 0.21772,0.21167 0.21754,2.81316 0.21729,1.0312 0.21701,-16.16046 0.21669,14.37017 0.21634,-7.97286 0.21595,11.27966 0.21553,-2.93844 0.21508,-6.39964 0.43414,-0.88958 0.43167,-3.42865 0.21746,-3.04707 0.2167,10.74811 0.21593,-2.0934 0.21762,-0.26071 0.21674,-3.95256 0.21585,5.50836 0.21732,-0.75515 0.21634,-2.91221 0.21535,1.89621 0.21663,-1.90934 0.21556,5.08988 0.21669,-6.61195 0.21555,8.14361 0.21655,0.72275 0.43364,-6.8221 0.21698,-7.61661 0.21568,3.54615 0.21634,8.07183 0.21695,-8.91278 0.21555,12.38526 0.21605,-5.71837 0.21648,-1.32951 0.21684,1.70761 0.21713,-0.41372 0.21559,-7.49393 0.21582,11.63584 0.21597,-7.83323 0.21608,0.1852 0.21612,0.38503 0.21612,-1.93193 0.21607,6.45985 0.21597,-6.43413 0.21582,10.74772 0.21717,-7.44958 0.2169,0.4408 0.21657,1.30802 0.21623,-5.47221 0.21584,9.61666 0.21684,-10.2273 0.43219,-3.77326 0.43267,10.76899 0.21672,-0.72844 0.21602,-3.91994 0.21658,-8.94255 0.21706,1.96593 0.21625,0.5644 0.43356,10.35723 1.0817,-11.67476 0.21655,6.81595 0.2165,-12.28597 0.2164,-1.38904 0.21626,6.32527 0.21606,-0.95064 0.21685,3.44981 0.21655,-0.006 0.43302,6.3961 0.21637,-10.21816 0.21685,-0.87161 0.21632,2.69033 0.21669,-12.67871 0.21608,18.72952 0.21633,-10.92031 0.21654,2.21613 0.21667,4.54365 0.21675,-3.43583 0.21677,-1.45257 0.21675,-6.44425 0.21668,14.92912 0.21655,-12.30532 0.21638,-1.80477 0.21618,11.62398 0.6498,-11.03747 0.43297,4.69124 0.21614,-7.58421 0.21631,3.23298 0.21642,8.97105 0.21648,-9.24529 0.21649,1.61896 0.4328,9.23603 0.21621,-10.31499 0.21665,8.38091 0.21641,-8.44861 0.21673,1.43082 0.21638,-9.7707 0.2166,-3.46792 0.21675,15.82263 0.21627,-1.68902 0.21633,-4.63915 0.21633,0.70186 0.21628,4.86091 0.21672,-6.86856 0.43292,9.20594 0.43294,-6.52937 0.43307,2.97368 0.21662,-10.37441 0.21662,10.66403 0.21657,0.39088 0.21645,-2.97417 0.21631,1.00378 0.21655,-10.13387 0.43275,-1.44062 0.21653,1.79711 0.21655,-1.55326 0.21654,5.0569 0.21646,-0.68349 0.21634,3.66511 0.21657,-0.56015 0.21635,-0.9335 0.21647,1.29069 0.21653,-4.54644 0.21654,3.16853 0.21651,4.89557 0.21641,-3.72569 0.21663,0.55987 0.21644,4.48167 0.21654,-1.3249 0.2166,-5.3895 0.2166,8.14245 0.21654,-9.07058 0.21645,1.81756 v 0" /></g></g><g
       id="g1004"><g
         clip-path="url(#clipPath1010)"
         id="g1006"><path
           id="path1012"
           style="fill:none;stroke:#0000ff;stroke-width:1.5;stroke-linecap:square;stroke-linejoin:round;stroke-miterlimit:10;stroke-dasharray:none;stroke-opacity:1"
           d="m 158.12112,141.60797 0.14695,-4.47386 0.14543,0.33304 0.14394,11.35154 0.14247,-15.35147 0.14105,125.17464 0.13964,-111.58777 0.13826,1.99218 0.13691,-9.19074 0.1356,4.4556 0.13429,-3.17245" /></g></g><g
       id="g1014"><g
         clip-path="url(#clipPath1020)"
         id="g1016"><path
           id="path1022"
           style="fill:none;stroke:#0000ff;stroke-width:1.5;stroke-linecap:square;stroke-linejoin:round;stroke-miterlimit:10;stroke-dasharray:none;stroke-opacity:1"
           d="m 244.26056,124.2095 1.22108,-12.9549 1.12329,2.48228 1.04001,-1.92012 0.96822,18.1928 0.90571,-8.92609 0.85078,-10.63271 0.80214,2.66524 0.75876,1.86634 0.71984,-2.83106 0.6847,-5.02833 0.65285,-3.50357 0.62381,7.83526 0.59727,-9.59338 1.12329,7.92382 0.52963,-10.490826 0.51038,14.495806 0.49245,0.23811 0.47577,-14.475776 0.46016,4.619426 0.44555,0.77611 0.43184,-4.69823 0.41894,0.29892 0.4068,6.98973 0.39534,-0.38346 0.38451,-7.66386 0.37425,11.80739 0.36453,-9.72882 0.3553,4.05282 0.34653,-0.44154 0.33818,5.57328 0.33022,-10.99087 0.32262,-1.445335 0.31538,1.54611 0.30844,-2.585772 0.30181,2.539493 0.29546,-7.936112 0.28936,9.302166 0.28352,-5.782222 0.2779,-2.45812 0.27251,4.998968 0.26731,1.484757 0.26232,2.474557 0.25751,-15.720107 0.25286,-0.346967 0.24839,18.016284 0.24407,-11.070585 0.2399,0.697048 0.23586,10.741977 0.46016,-1.12831 0.44555,-8.297812 0.21758,1.093878 0.21426,-3.638344 0.21104,7.441829 0.20791,1.983019 0.20487,-4.191941 0.20193,5.041581 0.19906,-4.36846 0.19628,5.0297 0.38451,-7.32588 0.18837,3.981975 0.18588,-8.020788 0.18345,0.398464 0.18108,-4.214703 0.17877,1.528356 0.17653,-0.01669 0.17433,3.668504 0.1722,-0.196536 0.1701,0.812793 0.16807,-1.167479 0.16608,-0.114007 0.16414,-10.572585 0.16224,6.159174 0.16039,0.09396 0.15857,6.936532 0.1568,-2.925411 0.15507,-5.701804 0.15338,2.995904 0.15172,-0.08264 0.29859,-8.519108 0.14696,9.042118 0.43183,1.618972 0.28069,-0.491586 0.27517,6.47346 0.26989,-1.36053 0.26479,-5.828619 0.25989,-0.441474 0.25517,-2.477616 0.2506,6.031033 0.24622,-3.708602 0.47983,8.713299 0.23389,-19.167243 0.23007,14.614165 0.22635,-2.672146 0.22276,-0.07161 0.21928,-7.495661 0.21591,1.737526 0.21263,15.243813 0.20947,-7.093981 0.20638,8.532371 0.20339,-3.766283 0.20048,-0.937162 0.39258,1.304917 0.19224,-5.910856 0.18965,7.562274 0.18711,-3.38892 0.18466,10.9452 0.18226,-8.938925 0.17992,4.911095 0.17764,-4.404489 0.17543,3.845699 0.25909,0.92374 0.25439,7.09052 0.24986,-2.28234 0.24549,-4.61537 0.24128,3.72574 0.23719,-4.06707 0.23325,0.59231 0.22944,13.2838 0.22575,-1.3794 0.22217,13.18324 0.21871,-5.41207 0.21535,2.1017 0.2121,-13.02716 0.41482,14.23936 0.2029,-7.85468 0.39721,15.20662 0.19446,-3.21819 0.19181,15.28815 0.18922,-7.80979 0.1867,1.07061 0.24514,-0.40757 0.24092,17.32523 0.23686,-4.63905 0.23293,0.79905 0.22913,7.74564 0.22544,-2.71018 0.22188,16.79677 0.21843,-1.12035 0.21508,11.77084 0.21183,2.41645 0.20868,9.11096 0.20563,-2.0534 0.40242,13.63921 0.19697,-1.04594 0.19424,22.2503 0.23908,5.71244 0.23508,15.29568 0.2312,5.35217 0.45128,36.57157 0.22031,2.48163 0.64092,20.80817 0.20729,-5.93935 0.20428,-14.27382 0.20135,-6.13159 0.43305,-34.30622 0.23069,3.15186 0.45032,-30.14316 0.21985,-7.28716 0.21646,5.90097 0.42316,-18.23706 0.20689,-3.10029 0.20388,-13.83749 0.20096,6.05728 0.23088,-14.23961 0.22714,2.08389 0.22352,-9.98078 0.22002,1.53841 0.21662,-5.23152 0.21333,-2.19389 0.21013,-0.77324 0.20703,5.83101 0.20402,-0.90364 0.2296,-8.42495 0.2259,5.6517 0.22232,-3.4776 0.21885,6.48168 0.21549,1.15225 0.21223,8.0439 0.20908,3.52294 0.43419,15.28828 0.22454,-3.54369 0.22101,21.85755 0.21758,-2.91122 0.21426,12.35452 0.41895,11.1436 0.67159,31.90862 0.43051,7.61951 0.21041,6.72764 0.20729,-4.35037 0.22454,-8.19732 0.22101,-13.3397 0.21758,6.83575 0.4253,-22.42213 0.20791,-5.82197 0.22335,-17.59516 0.21985,1.29285 0.42964,-9.42877 0.20998,-11.47508 0.22399,2.37936 0.22047,-1.02648 0.21706,3.9012 0.21376,-8.07887 0.21055,15.94171 0.44304,10.37327 0.21638,9.22861 0.423,9.32554 0.43951,18.59345 0.21469,1.01929 0.21146,-0.87244 0.2221,10.89991 0.21864,-14.82741 0.21529,0.42961 0.21203,-5.44608 0.22183,-8.60219 0.21838,0.60854 0.21503,-12.77162 0.21178,3.10986 0.22082,-2.52189 0.21739,-10.46037 0.21407,-0.5601 0.21086,-1.43495 0.21919,9.1539 0.21582,1.97984 0.21255,12.71502 0.22032,4.64023 0.2169,-0.92176 0.21361,4.77712 0.22084,-3.05417 0.21742,-0.4344 0.2141,2.8556 0.43828,-6.63339 0.21411,-8.93999 0.2204,3.78686 0.217,-6.81448 0.21369,6.82356 0.21956,-1.04647 0.21619,2.73044 0.2129,-0.51854 0.21839,5.57218 0.21505,-1.73205 0.22021,7.67804 0.2168,-2.13116 0.21351,-6.62137 0.21833,9.75046 0.43451,-13.3802 0.64613,1.91362 0.21381,-7.46407 0.2178,-1.31128 0.43271,13.3911 0.2149,2.64275 0.21842,7.4301 0.21508,-9.8923 0.2184,-0.52852 0.21506,-10.27619 0.21817,12.51588 0.64706,-13.45168 0.21721,14.86035 0.21389,-1.90204 0.21649,-11.50718 0.21892,5.99652 0.21556,-1.47351 0.21784,3.00929 0.21451,-1.193 0.21666,-9.27102 0.43395,12.45974 0.21718,-6.63143 0.21892,5.80472 0.21556,-4.04546 0.2172,3.36357 0.21871,-2.57269 0.21535,-9.35879 0.43486,12.98779 0.21475,-5.74143 0.21598,-2.64361 0.43522,14.31134 0.21478,-1.44441 0.21574,-10.48286 0.21661,5.94914 0.21739,-5.77578 0.21809,6.56646 0.43013,-11.55237 0.21597,1.80799 0.21646,16.3701 0.21689,-15.2729 0.21723,8.51404 0.21753,-0.78739 0.21774,-6.47249 0.21791,6.84006 0.21801,-3.6531 0.4361,5.69473 0.43588,-10.51387 0.21772,9.27009 0.21754,-6.29493 0.21729,3.21206 0.21701,7.44897 0.21669,-8.36113 0.21634,2.53158 0.21595,-0.17916 0.21553,-18.34073 0.21508,19.53781 0.21737,1.86333 0.21677,-3.36962 0.21615,-12.08047 0.21552,11.53856 0.21746,1.08901 0.2167,7.10886 0.21593,-4.44344 0.21762,-8.96714 0.21674,4.79418 0.21585,-3.73433 0.21732,5.82743 0.21634,-7.49682 0.21535,-1.86081 0.21663,-0.63047 0.21556,5.10786 0.21669,-0.95734 0.21555,-4.10714 0.21655,8.54591 0.21745,-6.48691 0.2162,0.7063 0.21697,7.42832 0.43203,-7.44152 0.21694,2.74058 0.21555,-5.25929 0.21605,7.93469 0.21648,3.17398 0.21684,0.003 0.43272,-11.90327 0.43179,13.81759 0.21608,-10.37857 0.21612,6.12441 0.43219,-12.81223 0.21597,17.21208 0.43299,-6.31688 0.2169,-8.31558 0.21657,12.66711 0.21623,-2.76384 0.21584,-7.78991 0.21685,7.73731 0.21635,-4.75356 0.43247,8.48626 0.21603,-7.16277 0.43274,7.51907 0.21658,-6.71075 0.21706,0.81827 0.21625,-5.12589 0.21662,-1.97297 0.21694,7.14257 0.21601,2.4193 0.21623,-2.91731 0.2164,-6.54522 0.43306,7.68004 0.21655,-1.66628 0.4329,3.29754 0.43232,-5.11803 0.4334,7.78339 0.21621,-2.32952 0.21681,-1.04053 0.21637,-7.11649 0.21685,6.20766 0.21632,-5.58641 0.21669,8.39061 0.21608,-8.37779 0.21633,11.52027 0.21654,-5.03794 0.21667,-0.32803 0.21675,-5.50139 0.21677,3.15465 0.21675,1.47182 0.21668,5.60665 0.21655,-9.89725 0.21638,4.54563 0.21618,-11.44488 0.21668,11.54826 0.21637,4.73642 0.21675,-1.22084 0.21635,-3.07103 0.21662,-7.35752 0.21614,12.4888 0.21631,-9.68445 0.21642,3.74981 0.21648,-12.98267 0.64929,18.98978 0.21621,-0.6954 0.43306,-13.44235 0.21673,14.71938 0.21638,-11.39485 0.2166,6.15461 0.21675,-8.62678 0.21627,4.12197 0.43266,-8.5958 0.21628,11.6844 0.21672,-2.16277 0.21656,5.01358 0.43298,-9.34545 0.21632,14.28353 0.21649,-14.15526 0.21658,1.86298 0.21662,-1.74527 0.21662,6.37602 0.21657,-6.59818 0.21645,1.83707 0.21631,8.57441 0.43286,-8.01811 0.21644,13.38797 0.21653,-4.54697 0.21655,-1.69599 0.21654,-10.28437 0.21646,0.16508 0.21634,7.79389 0.21657,3.24729 0.21635,-14.60206 0.21647,7.97622 0.21653,2.98087 0.21654,4.58215 0.21651,-1.59688 0.43304,-8.25463 0.21644,6.28523 0.21654,1.53679 0.2166,-3.96131 0.2166,-0.90306 0.43299,-3.6755 0.21662,3.49327 0.21642,-7.7324 0.21649,9.82541 0.21649,-3.22402 0.21646,2.52692 0.21637,-1.1059 0.21653,7.48542 0.21633,-9.92962 0.21639,8.82277 0.21638,-1.24652 0.2166,4.25834 0.21649,-1.50492 0.43299,-7.54364 0.2164,1.61898 0.21635,-6.90352 0.21651,1.63366 0.21636,3.9707 0.21641,1.19729 0.2164,5.69024 0.21658,-6.46255 0.21647,1.73024 0.21654,-2.36617 0.21656,4.45718 0.21652,-9.48985 0.21644,4.42161 0.21652,-1.53277 0.21654,-5.52966 0.21652,13.82122 0.21645,-1.89594 0.21652,-9.30373 0.21654,8.76268 0.64944,-7.88844 0.21651,12.02595 0.21646,-13.43737 0.21655,8.83639 0.2164,-9.77932 0.21639,2.143 0.2165,0.20267 0.21655,3.11783 0.21654,-0.12904 0.21649,6.26408 0.2164,-0.75774 0.2164,-8.99332 0.21652,4.27397 0.21642,-7.70935 0.21644,11.49105 0.21639,2.12241 0.21645,-5.8056 0.21646,-0.70285 0.21641,0.55955 0.21645,-5.47082 0.21644,13.38278 0.21653,-14.23307 0.21641,4.11599 0.21651,9.19547 0.43288,-11.09218 0.21652,14.10413 0.21641,-8.60599 0.43294,8.57766 0.64939,-15.343 0.4329,7.99739 0.21642,-4.87932 0.21644,6.53286 0.21652,0.0284 0.21644,-4.36601 0.21651,0.48737 0.21644,7.02761 0.43294,-7.59899 0.2165,1.53819 0.21651,5.403 0.21648,-0.20246 0.21648,-0.52545 0.21644,-5.01873 0.21643,3.37252 0.43291,-6.06567 0.21646,-10.71112 0.64946,16.44356 0.21651,-0.1934 0.21643,-2.43798 0.21647,3.36501 0.21645,-8.8767 0.21645,-1.58394 0.21649,13.42786 0.43292,-10.38118 0.21649,8.14485 0.43289,-0.98574 0.21645,-1.08192 0.21647,-10.48424 0.21644,13.25744 0.21648,3.53317 0.43298,-17.66383 0.21646,5.08139 0.21648,-2.17154 0.21646,1.7106 0.21645,4.14887 0.21645,1.77335 0.21644,-16.06784 0.21646,16.21518 0.21647,-3.65988 0.21648,-0.11894 0.21645,-1.09357 0.64941,10.75102 0.21648,-12.85573 0.21645,5.06097 0.21647,2.06468 0.21648,0.9724 0.21645,5.09055 0.21645,-7.30136 0.43291,-7.60564 0.21645,8.59482 0.21647,-11.9667 0.21645,12.99474 0.21647,1.02231 0.21647,-3.50067 0.21646,-10.03204 0.21649,6.5486 0.21646,12.0782 0.21646,-11.71964 0.43292,10.03351 0.21648,-6.14443 0.21646,-1.76182 0.21647,7.28476 0.21647,-4.76777 0.21646,1.20386 0.21645,-5.12585 0.21647,3.35018 0.21648,-6.43176 0.21646,-0.92193 0.21646,13.55655 0.21647,-5.33151 0.21647,-2.48996 0.21648,2.3894 0.21646,5.97368 0.21645,-8.21201 0.21647,4.85424 0.21647,-11.06908 0.21647,15.43778 0.21647,-2.49934 0.43298,-9.87836 0.43291,4.64193 0.21647,1.57424 0.21641,-0.49268 0.21656,-5.67311 0.2164,-2.55254 0.21656,9.37043 0.21643,-10.57116 0.21649,8.96864 0.2165,-2.2281 0.21645,-6.91366 0.21648,16.21499 0.43292,-10.80281 0.21647,-4.6731 0.21639,11.04928 0.43302,-10.32731 0.43287,10.85801 0.43294,-3.86802 0.21648,-0.39348 0.2165,0.15433 0.2164,-2.30971 0.21651,2.33975 0.21648,9.45438 0.43295,-9.79744 0.21645,-11.21972 0.21648,18.03006 0.21647,-13.64068 0.21648,4.4393 0.21645,1.63652 0.21644,-1.35668 0.21646,9.40859 0.21651,-17.5279 0.21644,20.0011 0.43296,-15.72522 0.21643,11.2835 0.21652,-8.90799 0.21641,11.08379 0.21647,-8.77816 0.21648,-0.56479 0.21649,11.18071 0.21647,-4.19963 0.21646,-9.5807 0.43293,4.64673 0.2165,-4.77941 0.21642,0.2729 0.64944,8.63112 0.21642,-2.08164 0.2165,1.37833 0.21646,-0.67732 0.21649,-5.56052 0.21647,7.46002 0.21645,-5.63963 0.21644,-0.77907 0.21648,0.4578 0.21646,10.5369 0.2165,-4.08179 0.21644,-6.97865 0.21648,1.97177 0.21646,0.10859 0.21648,-3.96501 0.21647,5.81741 0.21644,-4.65215 0.2165,16.94559 0.21646,-9.29717 0.21646,0.35682 0.21646,-13.1452 0.21649,11.63172 0.43295,-8.25904 0.21644,5.95793 0.21647,-2.02212 0.21649,4.98142 0.21645,1.68662 0.21646,-9.19827 0.21647,0.0191 0.21648,-0.43872 0.21648,9.10701 0.21645,-5.47196 0.21645,-1.26838 0.21647,0.29325 0.21647,5.21296 0.21649,-13.21536 0.21646,-3.03809 0.21648,9.87773 0.21644,-5.11996 0.21649,5.39002 0.21645,-0.50313 0.21648,-2.48029 0.21646,4.45829 0.21646,-2.29986 0.21649,-13.45961 0.21647,15.18357 0.21646,6.66626 0.21648,0.11817 0.21645,-4.77873 0.21648,6.02471 0.21645,-3.77285 0.21647,-11.0975 0.21648,7.20568 0.43295,-8.19 0.21645,11.41331 0.21648,-4.92163 0.21647,-1.81379 0.21647,0.36966 0.21646,-4.28873 0.21646,2.26785 0.21647,10.02225 0.21648,-3.31649 0.21647,6.81779 0.21647,-10.78811 0.21647,5.87585 0.43292,-7.29685 0.21647,7.09974 0.21648,0.60896 0.21646,-1.07312 0.21648,-2.47335 0.21646,-7.96336 0.21647,9.54312 0.21647,-7.22673 0.21647,15.12381 0.21647,-11.90999 0.21646,16.10436 0.21647,-19.82027 0.21646,5.54406 0.21647,1.54085 0.21648,8.03535 0.21646,-9.12933 0.21648,7.35606 0.21647,1.10306 0.21645,-19.06294 0.21647,14.60225 0.21647,-7.89217 0.21648,8.98282 0.21647,-8.79719 0.21646,5.13729 v 0" /></g></g><g
       id="g1024"><g
         clip-path="url(#clipPath1030)"
         id="g1026"><path
           id="path1032"
           style="fill:none;stroke:#008000;stroke-width:1.5;stroke-linecap:square;stroke-linejoin:round;stroke-miterlimit:10;stroke-dasharray:none;stroke-opacity:1"
           d="M 94.213659,245.39639 H 244.25162 v 0" /></g></g><g
       id="g1034"><g
         clip-path="url(#clipPath1040)"
         id="g1036"><path
           id="path1042"
           style="fill:none;stroke:#008000;stroke-width:1.5;stroke-linecap:square;stroke-linejoin:round;stroke-miterlimit:10;stroke-dasharray:none;stroke-opacity:1"
           d="m 210.60936,245.39639 h 216.277 v 0" /></g></g><g
       id="g1044"><g
         clip-path="url(#clipPath1050)"
         id="g1046"><path
           id="path1052"
           style="fill:none;stroke:#ff0000;stroke-width:1.5;stroke-linecap:butt;stroke-linejoin:round;stroke-miterlimit:10;stroke-dasharray:5.55, 2.4;stroke-dashoffset:0;stroke-opacity:1"
           d="M 94.213659,141.22942 H 244.25162 v 0" /></g></g><g
       id="g1054"><g
         clip-path="url(#clipPath1060)"
         id="g1056"><path
           id="path1062"
           style="fill:none;stroke:#ff0000;stroke-width:1.5;stroke-linecap:butt;stroke-linejoin:round;stroke-miterlimit:10;stroke-dasharray:5.55, 2.4;stroke-dashoffset:0;stroke-opacity:1"
           d="m 210.60936,141.22942 h 216.277 v 0" /></g></g><g
       id="g1064"><path
         id="path1066"
         style="fill:none;stroke:#000000;stroke-width:0.8;stroke-linecap:square;stroke-linejoin:miter;stroke-miterlimit:10;stroke-dasharray:none;stroke-opacity:1"
         d="M 77.580024,67.448 V 328.32" /><path
         id="path1068"
         style="fill:none;stroke:#000000;stroke-width:0.8;stroke-linecap:square;stroke-linejoin:miter;stroke-miterlimit:10;stroke-dasharray:none;stroke-opacity:1"
         d="M 77.580024,67.448 H 443.52" /><text
         y="-98.172775"
         x="162.35081"
         id="text1072"
         style="font-style:normal;font-variant:normal;font-weight:normal;font-stretch:normal;font-size:23px;font-family:sans-serif;-inkscape-font-specification:'sans-serif, Normal';font-variant-ligatures:normal;font-variant-caps:normal;font-variant-numeric:normal;font-variant-east-asian:normal;writing-mode:lr-tb;fill:#000000;fill-opacity:1;fill-rule:nonzero;stroke:none"
         transform="scale(1,-1)"><tspan
           y="-98.172775"
           x="162.35081"
           id="tspan1124"
           sodipodi:role="line">signal</tspan></text><text
         y="-73.82885"
         x="162.63211"
         id="text1076"
         style="font-style:normal;font-variant:normal;font-weight:normal;font-stretch:normal;font-size:23px;font-family:sans-serif;-inkscape-font-specification:'sans-serif, Normal';font-variant-ligatures:normal;font-variant-caps:normal;font-variant-numeric:normal;font-variant-east-asian:normal;writing-mode:lr-tb;fill:#000000;fill-opacity:1;fill-rule:nonzero;stroke:none"
         transform="scale(1,-1)"><tspan
           y="-73.82885"
           x="162.63211"
           id="tspan1126"
           sodipodi:role="line">frequency</tspan></text><g
         transform="matrix(1.436916,0,0,1.436916,16.350414,135.58173)"
         id="g1078"><text
           id="text1082"
           style="font-variant:normal;font-weight:normal;font-size:16px;font-family:'DejaVu Sans';-inkscape-font-specification:DejaVuSans;writing-mode:lr-tb;fill:#000000;fill-opacity:1;fill-rule:nonzero;stroke:none"
           transform="matrix(1,0,0,-1,0,0.125)"><tspan
             id="tspan1080"
             y="0"
             x="0">2</tspan></text><text
           id="text1086"
           style="font-style:italic;font-variant:normal;font-size:16px;font-family:'DejaVu Sans';-inkscape-font-specification:DejaVuSans-Oblique;writing-mode:lr-tb;fill:#000000;fill-opacity:1;fill-rule:nonzero;stroke:none"
           transform="matrix(1,0,0,-1,10.179688,0.125)"><tspan
             id="tspan1084"
             y="0"
             x="0">D</tspan></text><text
           id="text1090"
           style="font-style:italic;font-variant:normal;font-size:11.2px;font-family:'DejaVu Sans';-inkscape-font-specification:DejaVuSans-Oblique;writing-mode:lr-tb;fill:#000000;fill-opacity:1;fill-rule:nonzero;stroke:none"
           transform="matrix(1,0,0,-1,22.5,-2.5)"><tspan
             id="tspan1088"
             sodipodi:role="line"
             y="0"
             x="0 6.890625 10.833593">eff</tspan></text></g><text
         id="text1094"
         style="font-style:normal;font-variant:normal;font-weight:normal;font-stretch:normal;font-size:23px;font-family:sans-serif;-inkscape-font-specification:'sans-serif, Normal';font-variant-ligatures:normal;font-variant-caps:normal;font-variant-numeric:normal;font-variant-east-asian:normal;writing-mode:lr-tb;fill:#000000;fill-opacity:1;fill-rule:nonzero;stroke:none"
         transform="matrix(1,0,0,-1,297.82293,104.26266)"><tspan
           y="0"
           x="0"
           id="tspan1118"
           sodipodi:role="line">firing rate in</tspan></text><text
         y="-80.460213"
         x="297.82294"
         id="text1098"
         style="font-style:normal;font-variant:normal;font-weight:normal;font-stretch:normal;font-size:23px;font-family:sans-serif;-inkscape-font-specification:'sans-serif, Normal';font-variant-ligatures:normal;font-variant-caps:normal;font-variant-numeric:normal;font-variant-east-asian:normal;writing-mode:lr-tb;fill:#000000;fill-opacity:1;fill-rule:nonzero;stroke:none"
         transform="scale(1,-1)"><tspan
           y="-80.460213"
           x="297.82294"
           id="tspan1120"
           sodipodi:role="line">spiking state</tspan></text><path
         id="path1100"
         style="fill:#ffffff;fill-opacity:0.8;fill-rule:nonzero;stroke:#cccccc;stroke-width:1.00887;stroke-linecap:butt;stroke-linejoin:miter;stroke-miterlimit:10;stroke-dasharray:none;stroke-opacity:0.8"
         d="M 88.880561,169.83623 H 281.99319 c 2.17136,0 3.25703,1.06667 3.25703,3.2 v 45.36875 c 0,2.13333 -1.08567,3.2 -3.25703,3.2 H 88.880561 c -2.171353,0 -3.25703,-1.06667 -3.25703,-3.2 v -45.36875 c 0,-2.13333 1.085677,-3.2 3.25703,-3.2 z" /><path
         id="path1102"
         style="fill:none;stroke:#008000;stroke-width:1.03894;stroke-linecap:square;stroke-linejoin:round;stroke-miterlimit:10;stroke-dasharray:none;stroke-opacity:1"
         d="M 91.153972,205.95828 H 106.5053" /><text
         y="-202.45024"
         x="111.1377"
         id="text1106"
         style="font-style:normal;font-variant:normal;font-weight:normal;font-stretch:normal;font-size:20px;font-family:sans-serif;-inkscape-font-specification:'sans-serif, Normal';font-variant-ligatures:normal;font-variant-caps:normal;font-variant-numeric:normal;font-variant-east-asian:normal;writing-mode:lr-tb;fill:#000000;fill-opacity:1;fill-rule:nonzero;stroke:none"
         transform="scale(1,-1)"><tspan
           y="-202.45024"
           x="111.1377"
           id="tspan1128"
           sodipodi:role="line">overall firing rate</tspan></text><path
         id="path1108"
         style="fill:none;stroke:#ff0000;stroke-width:1.05876;stroke-linecap:butt;stroke-linejoin:round;stroke-miterlimit:10;stroke-dasharray:3.91743, 1.69402;stroke-dashoffset:0;stroke-opacity:1"
         d="M 90.269252,185.16435 H 106.2121" /><text
         y="-181.38715"
         x="110.83795"
         id="text1112"
         style="font-style:normal;font-variant:normal;font-weight:normal;font-stretch:normal;font-size:20px;font-family:sans-serif;-inkscape-font-specification:'sans-serif, Normal';font-variant-ligatures:normal;font-variant-caps:normal;font-variant-numeric:normal;font-variant-east-asian:normal;writing-mode:lr-tb;fill:#000000;fill-opacity:1;fill-rule:nonzero;stroke:none"
         transform="scale(1,-1)"><tspan
           y="-181.38715"
           x="110.83795"
           id="tspan1130"
           sodipodi:role="line">background</tspan></text><text
         y="-306.99478"
         x="89.843887"
         id="text1116"
         style="font-variant:normal;font-weight:normal;font-size:23.2693px;font-family:'DejaVu Sans';-inkscape-font-specification:DejaVuSans;writing-mode:lr-tb;fill:#000000;fill-opacity:1;fill-rule:nonzero;stroke:none;stroke-width:1.21194"
         transform="scale(1,-1)"><tspan
           style="stroke-width:1.21194"
           id="tspan1114"
           sodipodi:role="line"
           y="-306.99478"
           x="89.843887 96.708298 116.20787 131.0071 138.40666 153.20589 168.00502 175.40465 182.80424 200.72151 220.22105 235.02025 242.41985 257.21902">I=0.28, D=0.45</tspan></text></g></g></svg>
